<?xml version="1.0" encoding="UTF-8" standalone="no"?>
<!-- Generator: Adobe Illustrator 16.0.3, SVG Export Plug-In . SVG Version: 6.00 Build 0)  -->

<svg
   xmlns:dc="http://purl.org/dc/elements/1.1/"
   xmlns:cc="http://creativecommons.org/ns#"
   xmlns:rdf="http://www.w3.org/1999/02/22-rdf-syntax-ns#"
   xmlns:svg="http://www.w3.org/2000/svg"
   xmlns="http://www.w3.org/2000/svg"
   xmlns:xlink="http://www.w3.org/1999/xlink"
   xmlns:sodipodi="http://sodipodi.sourceforge.net/DTD/sodipodi-0.dtd"
   xmlns:inkscape="http://www.inkscape.org/namespaces/inkscape"
   version="1.1"
   id="Ebene_1"
   x="0px"
   y="0px"
   width="277.30038"
   height="240.14799"
   viewBox="0 0 277.30038 240.148"
   enable-background="new 0 0 595.281 841.891"
   xml:space="preserve"
   inkscape:version="0.91 r13725"
   sodipodi:docname="comb_phone.svg"><metadata
     id="metadata255"><rdf:RDF><cc:Work
         rdf:about=""><dc:format>image/svg+xml</dc:format><dc:type
           rdf:resource="http://purl.org/dc/dcmitype/StillImage" /><dc:title></dc:title></cc:Work></rdf:RDF></metadata><defs
     id="defs253" /><sodipodi:namedview
     pagecolor="#ffffff"
     bordercolor="#666666"
     borderopacity="1"
     objecttolerance="10"
     gridtolerance="10"
     guidetolerance="10"
     inkscape:pageopacity="0"
     inkscape:pageshadow="2"
     inkscape:window-width="1108"
     inkscape:window-height="675"
     id="namedview251"
     showgrid="false"
     showborder="false"
     fit-margin-top="0"
     fit-margin-left="0"
     fit-margin-right="0"
     fit-margin-bottom="0"
     inkscape:zoom="0.28032133"
     inkscape:cx="158.56119"
     inkscape:cy="123.944"
     inkscape:window-x="0"
     inkscape:window-y="0"
     inkscape:window-maximized="0"
     inkscape:current-layer="Ebene_1" /><g
     id="g3"
     transform="translate(-139.07931,-304.7415)"><g
       id="g5"><defs
         id="defs7"><rect
           id="SVGID_1_"
           x="132"
           y="304.741"
           width="332.16"
           height="240.14999" /></defs><clipPath
         id="SVGID_2_"><use
           xlink:href="#SVGID_1_"
           overflow="visible"
           id="use11"
           style="overflow:visible"
           x="0"
           y="0"
           width="100%"
           height="100%" /></clipPath><g
         clip-path="url(#SVGID_2_)"
         id="g13"><g
           id="g15"><defs
             id="defs17"><rect
               id="SVGID_3_"
               x="132"
               y="304.741"
               width="332.16"
               height="240.14999" /></defs><clipPath
             id="SVGID_4_"><use
               xlink:href="#SVGID_3_"
               overflow="visible"
               id="use21"
               style="overflow:visible"
               x="0"
               y="0"
               width="100%"
               height="100%" /></clipPath><g
             clip-path="url(#SVGID_4_)"
             id="g23"><g
               id="g25"
               style="opacity:0.73000004"><g
                 id="g27"><defs
                   id="defs29"><rect
                     id="SVGID_5_"
                     x="131.489"
                     y="297.99399"
                     width="292.48099"
                     height="247.741" /></defs><defs
                   id="defs32"><rect
                     id="SVGID_6_"
                     x="131.489"
                     y="297.99399"
                     width="292.48099"
                     height="247.741" /></defs><clipPath
                   id="SVGID_7_"><use
                     xlink:href="#SVGID_5_"
                     overflow="visible"
                     id="use36"
                     style="overflow:visible"
                     x="0"
                     y="0"
                     width="100%"
                     height="100%" /></clipPath><clipPath
                   id="SVGID_8_"
                   clip-path="url(#SVGID_7_)"><use
                     xlink:href="#SVGID_6_"
                     overflow="visible"
                     id="use39"
                     style="overflow:visible"
                     x="0"
                     y="0"
                     width="100%"
                     height="100%" /></clipPath><polygon
                   clip-path="url(#SVGID_8_)"
                   points="209.622,542.781 345.837,542.781 413.945,424.816 345.837,306.85 209.622,306.85 141.514,424.816 "
                   id="polygon41"
                   style="fill:#272e3e" /><polygon
                   clip-path="url(#SVGID_8_)"
                   points="209.622,542.781 345.837,542.781 413.945,424.816 345.837,306.85 209.622,306.85 141.514,424.816 "
                   id="polygon43"
                   style="fill:none;stroke:#3e3e40;stroke-width:4.21700001" /></g></g></g></g><g
           id="g45"><defs
             id="defs47"><rect
               id="SVGID_9_"
               x="132"
               y="304.741"
               width="332.16"
               height="240.14999" /></defs><clipPath
             id="SVGID_10_"><use
               xlink:href="#SVGID_9_"
               overflow="visible"
               id="use51"
               style="overflow:visible"
               x="0"
               y="0"
               width="100%"
               height="100%" /></clipPath><g
             clip-path="url(#SVGID_10_)"
             id="g53"><g
               enable-background="new    "
               id="g55"><path
                 d="m 170.982,432.809 0,3.255 -3.228,0 0,-3.255 -3.254,0 0,-3.228 3.255,0 0,-3.255 3.228,0 0,3.255 3.255,0 0,3.228 -3.256,0 z"
                 id="path57"
                 inkscape:connector-curvature="0"
                 style="fill:#ffffff" /><path
                 d="m 182.875,431.128 -7.093,0 0,-3.119 6.917,-12.504 4.082,0 0,12.504 2.604,0 -0.326,3.119 -2.278,0 0,5.045 -3.906,0.326 0,-5.371 z m 0,-3.119 0,-7.31 -3.865,7.31 3.865,0 z"
                 id="path59"
                 inkscape:connector-curvature="0"
                 style="fill:#ffffff" /><path
                 d="m 202.744,426.232 c 0,0.732 -0.052,1.501 -0.156,2.306 -0.104,0.805 -0.269,1.596 -0.495,2.373 -0.226,0.777 -0.516,1.517 -0.868,2.218 -0.353,0.7 -0.773,1.315 -1.261,1.844 -0.488,0.529 -1.051,0.949 -1.688,1.262 -0.637,0.312 -1.354,0.468 -2.149,0.468 -0.588,0 -1.139,-0.111 -1.655,-0.332 -0.515,-0.222 -0.979,-0.547 -1.39,-0.977 -0.411,-0.43 -0.757,-0.956 -1.037,-1.58 -0.281,-0.624 -0.475,-1.343 -0.583,-2.156 l 3.038,-0.705 c 0.054,0.262 0.115,0.538 0.183,0.827 0.068,0.289 0.167,0.559 0.298,0.807 0.131,0.249 0.307,0.454 0.529,0.617 0.222,0.163 0.513,0.244 0.875,0.244 0.371,0 0.687,-0.102 0.949,-0.305 0.262,-0.204 0.479,-0.473 0.651,-0.808 0.171,-0.334 0.31,-0.716 0.414,-1.146 0.104,-0.43 0.183,-0.87 0.237,-1.322 0.054,-0.452 0.088,-0.897 0.102,-1.336 0.014,-0.438 0.025,-0.834 0.034,-1.187 -0.425,0.316 -0.925,0.571 -1.499,0.766 -0.574,0.195 -1.142,0.292 -1.702,0.292 -0.724,0 -1.372,-0.158 -1.946,-0.475 -0.574,-0.317 -1.063,-0.739 -1.464,-1.269 -0.402,-0.528 -0.712,-1.137 -0.929,-1.823 -0.217,-0.688 -0.325,-1.406 -0.325,-2.157 0,-0.931 0.14,-1.837 0.42,-2.719 0.28,-0.882 0.676,-1.661 1.187,-2.34 0.511,-0.678 1.123,-1.223 1.837,-1.634 0.714,-0.411 1.501,-0.617 2.36,-0.617 0.85,0 1.589,0.149 2.217,0.447 0.628,0.299 1.164,0.708 1.607,1.228 0.443,0.521 0.809,1.133 1.098,1.838 0.29,0.705 0.516,1.46 0.678,2.265 0.162,0.805 0.276,1.642 0.339,2.509 0.062,0.868 0.094,1.728 0.094,2.577 z m -3.974,-2.251 0,-0.977 c 0,-0.361 -0.014,-0.732 -0.041,-1.112 -0.027,-0.38 -0.075,-0.75 -0.143,-1.112 -0.068,-0.361 -0.172,-0.687 -0.312,-0.977 -0.14,-0.289 -0.323,-0.52 -0.549,-0.691 -0.226,-0.171 -0.506,-0.258 -0.841,-0.258 -0.416,0 -0.757,0.111 -1.024,0.332 -0.267,0.222 -0.477,0.5 -0.63,0.835 -0.154,0.334 -0.26,0.698 -0.319,1.091 -0.059,0.394 -0.088,0.758 -0.088,1.092 0,0.353 0.036,0.701 0.109,1.045 0.072,0.344 0.189,0.655 0.353,0.936 0.163,0.28 0.379,0.507 0.651,0.678 0.271,0.172 0.605,0.258 1.003,0.258 0.244,0 0.475,-0.029 0.692,-0.088 0.217,-0.059 0.407,-0.124 0.569,-0.196 0.19,-0.091 0.371,-0.19 0.542,-0.299 0,-0.072 0.004,-0.145 0.014,-0.217 0,-0.063 0.002,-0.124 0.007,-0.184 0.005,-0.059 0.007,-0.111 0.007,-0.156 z"
                 id="path61"
                 inkscape:connector-curvature="0"
                 style="fill:#ffffff" /><path
                 d="m 212.088,432.931 2.672,0 0,-11.947 c -0.334,0.036 -0.656,0.072 -0.963,0.108 -0.262,0.026 -0.538,0.052 -0.827,0.074 -0.29,0.022 -0.524,0.034 -0.706,0.034 l -0.353,0 0,-2.916 4.733,-2.78 2.021,0 0,17.427 2.699,0 -0.163,3.404 -9.114,0 0,-3.404 z"
                 id="path63"
                 inkscape:connector-curvature="0"
                 style="fill:#ffffff" /><path
                 d="m 226.097,430.45 c 0.1,0.497 0.262,0.94 0.488,1.329 0.09,0.162 0.199,0.323 0.326,0.481 0.126,0.158 0.273,0.298 0.441,0.42 0.167,0.122 0.354,0.222 0.563,0.299 0.209,0.077 0.443,0.115 0.705,0.115 0.461,0 0.854,-0.079 1.18,-0.237 0.325,-0.158 0.592,-0.387 0.8,-0.685 0.208,-0.299 0.359,-0.66 0.454,-1.085 0.095,-0.425 0.143,-0.904 0.143,-1.438 0,-0.407 -0.05,-0.818 -0.149,-1.234 -0.099,-0.416 -0.251,-0.789 -0.454,-1.119 -0.204,-0.33 -0.459,-0.599 -0.767,-0.807 -0.307,-0.208 -0.673,-0.313 -1.098,-0.313 -0.488,0 -0.952,0.141 -1.39,0.421 -0.439,0.28 -0.825,0.624 -1.16,1.03 l -2.902,-1.207 0.895,-10.917 10.239,0 -0.325,3.255 -6.523,0 -0.448,4.855 c 0.244,-0.1 0.511,-0.19 0.8,-0.271 0.244,-0.072 0.529,-0.138 0.854,-0.196 0.326,-0.06 0.673,-0.089 1.044,-0.089 l 0.027,0 c 0.777,0 1.497,0.175 2.156,0.522 0.66,0.348 1.229,0.82 1.709,1.417 0.479,0.597 0.854,1.291 1.125,2.082 0.271,0.791 0.407,1.625 0.407,2.502 0,1.031 -0.156,1.98 -0.468,2.848 -0.312,0.868 -0.746,1.616 -1.302,2.245 -0.556,0.628 -1.216,1.119 -1.98,1.472 -0.764,0.353 -1.598,0.528 -2.502,0.528 -0.696,0 -1.368,-0.11 -2.014,-0.332 -0.646,-0.222 -1.239,-0.547 -1.777,-0.977 -0.538,-0.43 -1.001,-0.958 -1.39,-1.587 -0.389,-0.628 -0.669,-1.35 -0.841,-2.163 l 3.134,-1.164 z"
                 id="path65"
                 inkscape:connector-curvature="0"
                 style="fill:#ffffff" /></g></g></g><g
           id="g67"><defs
             id="defs69"><rect
               id="SVGID_11_"
               x="132"
               y="304.741"
               width="332.16"
               height="240.14999" /></defs><clipPath
             id="SVGID_12_"><use
               xlink:href="#SVGID_11_"
               overflow="visible"
               id="use73"
               style="overflow:visible"
               x="0"
               y="0"
               width="100%"
               height="100%" /></clipPath><g
             clip-path="url(#SVGID_12_)"
             id="g75"><text
               transform="translate(236.1729,436.3357)"
               font-size="27.7747"
               id="text77"
               style="font-size:27.77470016px;font-family:FrancoisOne-Regular;fill:#ffffff" />
</g></g><g
           id="g79"><defs
             id="defs81"><rect
               id="SVGID_13_"
               x="132"
               y="304.741"
               width="332.16"
               height="240.14999" /></defs><clipPath
             id="SVGID_14_"><use
               xlink:href="#SVGID_13_"
               overflow="visible"
               id="use85"
               style="overflow:visible"
               x="0"
               y="0"
               width="100%"
               height="100%" /></clipPath><g
             clip-path="url(#SVGID_14_)"
             id="g87"><g
               enable-background="new    "
               id="g89"><path
                 d="m 240.954,432.931 2.672,0 0,-11.947 c -0.334,0.036 -0.656,0.072 -0.963,0.108 -0.262,0.026 -0.538,0.052 -0.827,0.074 -0.29,0.022 -0.524,0.034 -0.706,0.034 l -0.353,0 0,-2.916 4.733,-2.78 2.021,0 0,17.427 2.699,0 -0.163,3.404 -9.114,0 0,-3.404 z"
                 id="path91"
                 inkscape:connector-curvature="0"
                 style="fill:#ffffff" /><path
                 d="m 252.062,420.766 c 0.135,-0.687 0.371,-1.343 0.705,-1.966 0.334,-0.624 0.759,-1.171 1.275,-1.642 0.515,-0.47 1.112,-0.845 1.79,-1.125 0.678,-0.28 1.424,-0.421 2.238,-0.421 0.768,0 1.496,0.106 2.184,0.318 0.687,0.213 1.284,0.534 1.79,0.963 0.506,0.43 0.909,0.963 1.207,1.601 0.298,0.638 0.447,1.377 0.447,2.218 0,0.741 -0.108,1.48 -0.325,2.217 -0.217,0.737 -0.511,1.468 -0.882,2.19 -0.371,0.724 -0.805,1.434 -1.302,2.129 -0.498,0.697 -1.024,1.375 -1.58,2.035 -0.556,0.66 -1.13,1.295 -1.722,1.905 -0.592,0.61 -1.169,1.187 -1.729,1.729 l 7.188,0 c 0,0.344 -0.018,0.651 -0.054,0.923 -0.036,0.271 -0.075,0.535 -0.115,0.793 -0.04,0.258 -0.077,0.522 -0.108,0.794 -0.032,0.271 -0.047,0.574 -0.047,0.908 l -11.378,0 0,-3.024 c 0.515,-0.669 1.071,-1.347 1.668,-2.034 0.597,-0.687 1.188,-1.379 1.776,-2.075 0.588,-0.696 1.157,-1.401 1.709,-2.115 0.551,-0.714 1.035,-1.429 1.451,-2.143 0.416,-0.715 0.75,-1.429 1.003,-2.144 0.253,-0.714 0.38,-1.428 0.38,-2.143 0,-0.253 -0.039,-0.497 -0.115,-0.732 -0.077,-0.234 -0.186,-0.438 -0.326,-0.61 -0.14,-0.171 -0.316,-0.31 -0.529,-0.413 -0.212,-0.104 -0.454,-0.156 -0.726,-0.156 -0.262,0 -0.5,0.046 -0.712,0.136 -0.212,0.091 -0.402,0.208 -0.57,0.353 -0.168,0.145 -0.314,0.31 -0.44,0.495 -0.127,0.186 -0.235,0.373 -0.326,0.563 -0.226,0.452 -0.389,0.963 -0.488,1.533 l -3.337,-1.06 z"
                 id="path93"
                 inkscape:connector-curvature="0"
                 style="fill:#ffffff" /></g></g></g><g
           id="g95"><defs
             id="defs97"><rect
               id="SVGID_15_"
               x="132"
               y="304.741"
               width="332.16"
               height="240.14999" /></defs><clipPath
             id="SVGID_16_"><use
               xlink:href="#SVGID_15_"
               overflow="visible"
               id="use101"
               style="overflow:visible"
               x="0"
               y="0"
               width="100%"
               height="100%" /></clipPath><g
             clip-path="url(#SVGID_16_)"
             id="g103"><text
               transform="translate(264.7603,436.3357)"
               font-size="27.7747"
               id="text105"
               style="font-size:27.77470016px;font-family:FrancoisOne-Regular;fill:#ffffff" />
</g></g><g
           id="g107"><defs
             id="defs109"><rect
               id="SVGID_17_"
               x="132"
               y="304.741"
               width="332.16"
               height="240.14999" /></defs><clipPath
             id="SVGID_18_"><use
               xlink:href="#SVGID_17_"
               overflow="visible"
               id="use113"
               style="overflow:visible"
               x="0"
               y="0"
               width="100%"
               height="100%" /></clipPath><g
             clip-path="url(#SVGID_18_)"
             id="g115"><g
               enable-background="new    "
               id="g117"><path
                 d="m 269.806,426.598 7.812,0 0,3.228 -7.812,0 0,-3.228 z"
                 id="path119"
                 inkscape:connector-curvature="0"
                 style="fill:#ffffff" /></g></g></g><g
           id="g121"><defs
             id="defs123"><rect
               id="SVGID_19_"
               x="132"
               y="304.741"
               width="332.16"
               height="240.14999" /></defs><clipPath
             id="SVGID_20_"><use
               xlink:href="#SVGID_19_"
               overflow="visible"
               id="use127"
               style="overflow:visible"
               x="0"
               y="0"
               width="100%"
               height="100%" /></clipPath><g
             clip-path="url(#SVGID_20_)"
             id="g129"><text
               transform="translate(279.1758,436.3357)"
               font-size="27.7747"
               id="text131"
               style="font-size:27.77470016px;font-family:FrancoisOne-Regular;fill:#ffffff" />
</g></g><g
           id="g133"><defs
             id="defs135"><rect
               id="SVGID_21_"
               x="132"
               y="304.741"
               width="332.16"
               height="240.14999" /></defs><clipPath
             id="SVGID_22_"><use
               xlink:href="#SVGID_21_"
               overflow="visible"
               id="use139"
               style="overflow:visible"
               x="0"
               y="0"
               width="100%"
               height="100%" /></clipPath><g
             clip-path="url(#SVGID_22_)"
             id="g141"><g
               enable-background="new    "
               id="g143"><path
                 d="m 284.831,436.336 c 0.117,-1.365 0.348,-2.751 0.691,-4.156 0.344,-1.406 0.767,-2.835 1.268,-4.286 0.502,-1.451 1.06,-2.927 1.675,-4.428 0.615,-1.501 1.248,-3.033 1.899,-4.598 l -7.202,0 0.326,-3.363 11.229,0 0,2.889 c -0.786,1.556 -1.494,3.122 -2.122,4.699 -0.628,1.578 -1.162,3.131 -1.601,4.658 -0.438,1.528 -0.775,3.016 -1.01,4.462 -0.235,1.447 -0.353,2.821 -0.353,4.123 l -4.8,0 z"
                 id="path145"
                 inkscape:connector-curvature="0"
                 style="fill:#ffffff" /></g></g></g><g
           id="g147"><defs
             id="defs149"><rect
               id="SVGID_23_"
               x="132"
               y="304.741"
               width="332.16"
               height="240.14999" /></defs><clipPath
             id="SVGID_24_"><use
               xlink:href="#SVGID_23_"
               overflow="visible"
               id="use153"
               style="overflow:visible"
               x="0"
               y="0"
               width="100%"
               height="100%" /></clipPath><g
             clip-path="url(#SVGID_24_)"
             id="g155"><text
               transform="translate(295.1743,436.3357)"
               font-size="27.7747"
               id="text157"
               style="font-size:27.77470016px;font-family:FrancoisOne-Regular;fill:#ffffff" />
</g></g><g
           id="g159"><defs
             id="defs161"><rect
               id="SVGID_25_"
               x="132"
               y="304.741"
               width="332.16"
               height="240.14999" /></defs><clipPath
             id="SVGID_26_"><use
               xlink:href="#SVGID_25_"
               overflow="visible"
               id="use165"
               style="overflow:visible"
               x="0"
               y="0"
               width="100%"
               height="100%" /></clipPath><g
             clip-path="url(#SVGID_26_)"
             id="g167"><g
               enable-background="new    "
               id="g169"><path
                 d="m 306.349,436.702 c -0.913,0 -1.704,-0.158 -2.373,-0.475 -0.67,-0.316 -1.239,-0.746 -1.709,-1.288 -0.471,-0.543 -0.854,-1.176 -1.152,-1.899 -0.299,-0.723 -0.531,-1.493 -0.699,-2.312 -0.167,-0.818 -0.285,-1.659 -0.353,-2.522 -0.068,-0.863 -0.102,-1.707 -0.102,-2.529 0,-0.751 0.034,-1.526 0.102,-2.326 0.068,-0.8 0.188,-1.582 0.359,-2.347 0.172,-0.764 0.409,-1.486 0.712,-2.17 0.303,-0.683 0.689,-1.281 1.16,-1.797 0.47,-0.515 1.037,-0.922 1.701,-1.221 0.665,-0.298 1.449,-0.447 2.354,-0.447 0.895,0 1.678,0.149 2.346,0.447 0.67,0.299 1.241,0.706 1.717,1.221 0.475,0.516 0.865,1.114 1.172,1.797 0.308,0.684 0.55,1.406 0.727,2.17 0.176,0.765 0.298,1.547 0.365,2.347 0.068,0.8 0.102,1.575 0.102,2.326 -0.008,0.822 -0.047,1.666 -0.115,2.529 -0.067,0.863 -0.188,1.704 -0.359,2.522 -0.171,0.818 -0.408,1.589 -0.711,2.312 -0.304,0.724 -0.692,1.356 -1.167,1.899 -0.475,0.542 -1.046,0.972 -1.716,1.288 -0.67,0.317 -1.457,0.475 -2.361,0.475 z m 0,-3.458 c 0.253,0 0.49,-0.036 0.712,-0.108 0.222,-0.072 0.427,-0.208 0.617,-0.407 0.19,-0.199 0.356,-0.475 0.502,-0.827 0.145,-0.353 0.269,-0.81 0.372,-1.37 0.104,-0.561 0.184,-1.238 0.238,-2.034 0.055,-0.795 0.081,-1.735 0.081,-2.82 0,-1.031 -0.021,-1.979 -0.062,-2.842 -0.04,-0.863 -0.146,-1.609 -0.318,-2.237 -0.172,-0.629 -0.425,-1.119 -0.76,-1.472 -0.334,-0.353 -0.795,-0.529 -1.383,-0.529 -0.597,0 -1.063,0.177 -1.396,0.529 -0.335,0.353 -0.582,0.843 -0.739,1.472 -0.159,0.628 -0.253,1.374 -0.285,2.237 -0.032,0.863 -0.048,1.811 -0.048,2.842 0,1.085 0.025,2.025 0.075,2.82 0.05,0.796 0.124,1.474 0.224,2.034 0.1,0.56 0.222,1.018 0.366,1.37 0.144,0.352 0.308,0.628 0.488,0.827 0.18,0.199 0.382,0.335 0.604,0.407 0.222,0.072 0.458,0.108 0.712,0.108 z"
                 id="path171"
                 inkscape:connector-curvature="0"
                 style="fill:#ffffff" /><path
                 d="m 326.91,426.232 c 0,0.732 -0.053,1.501 -0.156,2.306 -0.104,0.805 -0.27,1.596 -0.495,2.373 -0.225,0.777 -0.516,1.517 -0.868,2.218 -0.353,0.7 -0.773,1.315 -1.262,1.844 -0.488,0.529 -1.051,0.949 -1.688,1.262 -0.638,0.312 -1.354,0.468 -2.15,0.468 -0.588,0 -1.139,-0.111 -1.654,-0.332 -0.516,-0.222 -0.979,-0.547 -1.391,-0.977 -0.41,-0.43 -0.757,-0.956 -1.037,-1.58 -0.28,-0.624 -0.475,-1.343 -0.583,-2.156 l 3.038,-0.705 c 0.055,0.262 0.115,0.538 0.184,0.827 0.067,0.289 0.166,0.559 0.298,0.807 0.131,0.249 0.308,0.454 0.528,0.617 0.223,0.163 0.514,0.244 0.875,0.244 0.371,0 0.688,-0.102 0.949,-0.305 0.263,-0.204 0.479,-0.473 0.651,-0.808 0.171,-0.334 0.31,-0.716 0.413,-1.146 0.104,-0.43 0.184,-0.87 0.238,-1.322 0.054,-0.452 0.088,-0.897 0.102,-1.336 0.014,-0.439 0.024,-0.834 0.033,-1.187 -0.425,0.316 -0.924,0.571 -1.498,0.766 -0.574,0.195 -1.142,0.292 -1.702,0.292 -0.724,0 -1.372,-0.158 -1.946,-0.475 -0.574,-0.317 -1.063,-0.739 -1.465,-1.269 -0.402,-0.528 -0.711,-1.137 -0.929,-1.823 -0.217,-0.688 -0.325,-1.406 -0.325,-2.157 0,-0.931 0.14,-1.837 0.42,-2.719 0.28,-0.882 0.676,-1.661 1.188,-2.34 0.51,-0.678 1.123,-1.223 1.837,-1.634 0.714,-0.411 1.501,-0.617 2.36,-0.617 0.85,0 1.588,0.149 2.217,0.447 0.629,0.299 1.164,0.708 1.607,1.228 0.443,0.521 0.809,1.133 1.098,1.838 0.29,0.705 0.516,1.46 0.679,2.265 0.163,0.805 0.276,1.642 0.339,2.509 0.062,0.868 0.095,1.728 0.095,2.577 z m -3.975,-2.251 0,-0.977 c 0,-0.361 -0.014,-0.732 -0.04,-1.112 -0.027,-0.38 -0.075,-0.75 -0.143,-1.112 -0.067,-0.361 -0.172,-0.687 -0.312,-0.977 -0.141,-0.289 -0.324,-0.52 -0.55,-0.691 -0.226,-0.171 -0.507,-0.258 -0.841,-0.258 -0.416,0 -0.758,0.111 -1.023,0.332 -0.268,0.222 -0.478,0.5 -0.631,0.835 -0.154,0.334 -0.26,0.698 -0.318,1.091 -0.06,0.394 -0.089,0.758 -0.089,1.092 0,0.353 0.036,0.701 0.108,1.045 0.072,0.344 0.189,0.655 0.354,0.936 0.162,0.28 0.379,0.507 0.65,0.678 0.271,0.172 0.605,0.258 1.004,0.258 0.244,0 0.475,-0.029 0.691,-0.088 0.216,-0.059 0.406,-0.124 0.569,-0.196 0.19,-0.091 0.37,-0.19 0.542,-0.299 0,-0.072 0.005,-0.145 0.014,-0.217 0,-0.063 0.002,-0.124 0.008,-0.184 0.005,-0.059 0.007,-0.111 0.007,-0.156 z"
                 id="path173"
                 inkscape:connector-curvature="0"
                 style="fill:#ffffff" /></g></g></g><g
           id="g175"><defs
             id="defs177"><rect
               id="SVGID_27_"
               x="132"
               y="304.741"
               width="332.16"
               height="240.14999" /></defs><clipPath
             id="SVGID_28_"><use
               xlink:href="#SVGID_27_"
               overflow="visible"
               id="use181"
               style="overflow:visible"
               x="0"
               y="0"
               width="100%"
               height="100%" /></clipPath><g
             clip-path="url(#SVGID_28_)"
             id="g183"><text
               transform="translate(328.1714,436.3357)"
               font-size="27.7747"
               id="text185"
               style="font-size:27.77470016px;font-family:FrancoisOne-Regular;fill:#ffffff" />
</g></g><g
           id="g187"><defs
             id="defs189"><rect
               id="SVGID_29_"
               x="132"
               y="304.741"
               width="332.16"
               height="240.14999" /></defs><clipPath
             id="SVGID_30_"><use
               xlink:href="#SVGID_29_"
               overflow="visible"
               id="use193"
               style="overflow:visible"
               x="0"
               y="0"
               width="100%"
               height="100%" /></clipPath><g
             clip-path="url(#SVGID_30_)"
             id="g195"><g
               enable-background="new    "
               id="g197"><path
                 d="m 332.876,419.506 c 0.361,-0.705 0.746,-1.309 1.152,-1.811 0.408,-0.502 0.848,-0.913 1.322,-1.234 0.475,-0.32 0.988,-0.556 1.54,-0.705 0.552,-0.149 1.161,-0.224 1.831,-0.224 0.687,0 1.355,0.11 2.007,0.332 0.652,0.222 1.231,0.547 1.743,0.977 0.51,0.43 0.92,0.965 1.227,1.607 0.308,0.642 0.461,1.383 0.461,2.224 0,0.29 -0.027,0.638 -0.081,1.044 -0.054,0.407 -0.189,0.832 -0.407,1.275 -0.217,0.443 -0.537,0.882 -0.963,1.315 -0.424,0.434 -1.008,0.822 -1.749,1.166 0.552,0.208 1.044,0.459 1.479,0.753 0.434,0.294 0.8,0.646 1.099,1.058 0.298,0.412 0.523,0.887 0.678,1.424 0.154,0.538 0.23,1.146 0.23,1.824 0,0.995 -0.158,1.874 -0.475,2.638 -0.316,0.765 -0.746,1.406 -1.288,1.926 -0.542,0.521 -1.176,0.914 -1.899,1.181 -0.723,0.266 -1.491,0.399 -2.305,0.399 -0.715,0 -1.41,-0.093 -2.089,-0.278 -0.679,-0.185 -1.302,-0.468 -1.872,-0.847 -0.568,-0.38 -1.063,-0.857 -1.478,-1.432 -0.416,-0.573 -0.719,-1.249 -0.909,-2.027 l 2.957,-1.288 c 0.127,0.308 0.269,0.602 0.428,0.882 0.157,0.28 0.356,0.528 0.596,0.745 0.24,0.218 0.529,0.39 0.868,0.516 0.339,0.127 0.753,0.19 1.241,0.19 0.353,0 0.669,-0.07 0.949,-0.211 0.28,-0.14 0.521,-0.327 0.726,-0.563 0.205,-0.236 0.359,-0.506 0.468,-0.813 0.109,-0.307 0.162,-0.629 0.162,-0.963 0,-0.714 -0.117,-1.291 -0.352,-1.729 -0.235,-0.438 -0.552,-0.775 -0.949,-1.01 -0.398,-0.235 -0.863,-0.392 -1.397,-0.469 -0.533,-0.076 -1.103,-0.115 -1.708,-0.115 l 0,-3.119 c 0.561,0 1.089,-0.038 1.586,-0.115 0.497,-0.076 0.934,-0.224 1.309,-0.44 0.375,-0.216 0.672,-0.516 0.889,-0.896 0.217,-0.38 0.325,-0.877 0.325,-1.491 0,-0.299 -0.04,-0.586 -0.122,-0.861 -0.081,-0.275 -0.203,-0.518 -0.366,-0.726 -0.163,-0.208 -0.366,-0.375 -0.61,-0.502 -0.244,-0.126 -0.529,-0.189 -0.854,-0.189 -0.453,0 -0.84,0.113 -1.16,0.339 -0.32,0.226 -0.59,0.475 -0.807,0.746 -0.254,0.316 -0.466,0.678 -0.638,1.085 l -2.795,-1.588 z"
                 id="path199"
                 inkscape:connector-curvature="0"
                 style="fill:#ffffff" /><path
                 d="m 353.437,436.702 c -0.914,0 -1.705,-0.158 -2.374,-0.475 -0.669,-0.317 -1.239,-0.746 -1.708,-1.288 -0.471,-0.543 -0.855,-1.176 -1.153,-1.899 -0.298,-0.723 -0.531,-1.493 -0.698,-2.312 -0.168,-0.818 -0.285,-1.659 -0.354,-2.522 -0.066,-0.863 -0.102,-1.707 -0.102,-2.529 0,-0.751 0.035,-1.526 0.102,-2.326 0.068,-0.8 0.188,-1.582 0.359,-2.347 0.172,-0.764 0.41,-1.486 0.713,-2.17 0.303,-0.683 0.689,-1.281 1.159,-1.797 0.47,-0.515 1.038,-0.922 1.702,-1.221 0.664,-0.298 1.449,-0.447 2.354,-0.447 0.895,0 1.677,0.149 2.346,0.447 0.669,0.299 1.24,0.706 1.716,1.221 0.475,0.516 0.865,1.114 1.173,1.797 0.307,0.684 0.549,1.406 0.726,2.17 0.177,0.765 0.298,1.547 0.366,2.347 0.068,0.8 0.102,1.575 0.102,2.326 -0.009,0.822 -0.047,1.666 -0.115,2.529 -0.068,0.863 -0.188,1.704 -0.359,2.522 -0.171,0.818 -0.409,1.589 -0.712,2.312 -0.304,0.724 -0.692,1.356 -1.167,1.899 -0.475,0.542 -1.046,0.972 -1.715,1.288 -0.672,0.317 -1.458,0.475 -2.361,0.475 z m 0,-3.458 c 0.252,0 0.49,-0.036 0.711,-0.108 0.223,-0.072 0.428,-0.208 0.617,-0.407 0.19,-0.199 0.357,-0.475 0.502,-0.827 0.145,-0.352 0.27,-0.81 0.373,-1.37 0.103,-0.56 0.184,-1.238 0.237,-2.034 0.055,-0.795 0.081,-1.735 0.081,-2.82 0,-1.031 -0.02,-1.979 -0.061,-2.842 -0.041,-0.863 -0.146,-1.609 -0.318,-2.237 -0.172,-0.629 -0.426,-1.119 -0.76,-1.472 -0.334,-0.353 -0.796,-0.529 -1.383,-0.529 -0.598,0 -1.063,0.177 -1.397,0.529 -0.334,0.352 -0.581,0.843 -0.739,1.472 -0.158,0.628 -0.253,1.374 -0.285,2.237 -0.031,0.863 -0.047,1.811 -0.047,2.842 0,1.085 0.025,2.025 0.074,2.82 0.05,0.796 0.125,1.474 0.225,2.034 0.1,0.56 0.221,1.018 0.365,1.37 0.144,0.352 0.308,0.628 0.488,0.827 0.182,0.199 0.383,0.335 0.604,0.407 0.222,0.072 0.459,0.108 0.713,0.108 z"
                 id="path201"
                 inkscape:connector-curvature="0"
                 style="fill:#ffffff" /></g></g></g><g
           id="g203"><defs
             id="defs205"><rect
               id="SVGID_31_"
               x="132"
               y="304.741"
               width="332.16"
               height="240.14999" /></defs><clipPath
             id="SVGID_32_"><use
               xlink:href="#SVGID_31_"
               overflow="visible"
               id="use209"
               style="overflow:visible"
               x="0"
               y="0"
               width="100%"
               height="100%" /></clipPath><g
             clip-path="url(#SVGID_32_)"
             id="g211"><text
               transform="translate(361.1675,436.3357)"
               font-size="27.7747"
               id="text213"
               style="font-size:27.77470016px;font-family:FrancoisOne-Regular;fill:#ffffff" />
</g></g><g
           id="g215"><defs
             id="defs217"><rect
               id="SVGID_33_"
               x="132"
               y="304.741"
               width="332.16"
               height="240.14999" /></defs><clipPath
             id="SVGID_34_"><use
               xlink:href="#SVGID_33_"
               overflow="visible"
               id="use221"
               style="overflow:visible"
               x="0"
               y="0"
               width="100%"
               height="100%" /></clipPath><g
             clip-path="url(#SVGID_34_)"
             id="g223"><g
               enable-background="new    "
               id="g225"><path
                 d="m 365.927,420.766 c 0.135,-0.687 0.371,-1.343 0.705,-1.966 0.334,-0.624 0.76,-1.171 1.275,-1.642 0.515,-0.47 1.111,-0.845 1.789,-1.125 0.679,-0.28 1.424,-0.421 2.238,-0.421 0.768,0 1.496,0.106 2.184,0.318 0.687,0.213 1.283,0.534 1.79,0.963 0.507,0.43 0.909,0.963 1.207,1.601 0.298,0.638 0.447,1.377 0.447,2.218 0,0.741 -0.108,1.48 -0.325,2.217 -0.217,0.737 -0.512,1.468 -0.882,2.19 -0.37,0.724 -0.805,1.434 -1.302,2.129 -0.498,0.697 -1.023,1.375 -1.58,2.035 -0.557,0.66 -1.131,1.295 -1.723,1.905 -0.592,0.61 -1.168,1.187 -1.729,1.729 l 7.188,0 c 0,0.344 -0.018,0.651 -0.055,0.923 -0.035,0.271 -0.074,0.535 -0.115,0.793 -0.04,0.258 -0.076,0.522 -0.107,0.794 -0.032,0.271 -0.048,0.574 -0.048,0.908 l -11.378,0 0,-3.024 c 0.515,-0.669 1.07,-1.347 1.668,-2.034 0.596,-0.687 1.188,-1.379 1.775,-2.075 0.587,-0.696 1.158,-1.401 1.709,-2.115 0.552,-0.714 1.035,-1.429 1.451,-2.143 0.416,-0.715 0.751,-1.429 1.004,-2.144 0.253,-0.714 0.38,-1.428 0.38,-2.143 0,-0.253 -0.038,-0.497 -0.115,-0.732 -0.077,-0.234 -0.186,-0.438 -0.325,-0.61 -0.141,-0.171 -0.316,-0.31 -0.529,-0.413 -0.213,-0.104 -0.454,-0.156 -0.726,-0.156 -0.263,0 -0.499,0.046 -0.712,0.136 -0.213,0.091 -0.402,0.208 -0.57,0.353 -0.167,0.145 -0.313,0.31 -0.439,0.495 -0.127,0.186 -0.236,0.373 -0.326,0.563 -0.227,0.452 -0.389,0.963 -0.488,1.533 l -3.336,-1.06 z"
                 id="path227"
                 inkscape:connector-curvature="0"
                 style="fill:#ffffff" /><path
                 d="m 380.832,436.336 c 0.117,-1.365 0.348,-2.751 0.691,-4.156 0.344,-1.406 0.767,-2.835 1.268,-4.286 0.502,-1.451 1.061,-2.927 1.676,-4.428 0.614,-1.501 1.248,-3.033 1.898,-4.598 l -7.201,0 0.325,-3.363 11.229,0 0,2.889 c -0.787,1.556 -1.494,3.122 -2.123,4.699 -0.628,1.578 -1.162,3.131 -1.6,4.658 -0.439,1.528 -0.775,3.016 -1.011,4.462 -0.235,1.447 -0.353,2.821 -0.353,4.123 l -4.799,0 z"
                 id="path229"
                 inkscape:connector-curvature="0"
                 style="fill:#ffffff" /></g></g></g><g
           id="g231"><defs
             id="defs233"><rect
               id="SVGID_35_"
               x="132"
               y="304.741"
               width="332.16"
               height="240.14999" /></defs><clipPath
             id="SVGID_36_"><use
               xlink:href="#SVGID_35_"
               overflow="visible"
               id="use237"
               style="overflow:visible"
               x="0"
               y="0"
               width="100%"
               height="100%" /></clipPath><g
             clip-path="url(#SVGID_36_)"
             id="g239"><g
               id="g241"><defs
                 id="defs243"><rect
                   id="SVGID_37_"
                   x="246.799"
                   y="330.082"
                   width="62.457001"
                   height="67.557999" /></defs><clipPath
                 id="SVGID_38_"><use
                   xlink:href="#SVGID_37_"
                   overflow="visible"
                   id="use247"
                   style="overflow:visible"
                   x="0"
                   y="0"
                   width="100%"
                   height="100%" /></clipPath><path
                 clip-path="url(#SVGID_38_)"
                 d="m 266.522,348.611 c -0.692,0.151 -1.268,0.256 -1.832,0.407 -4.333,1.169 -6.114,6.064 -3.151,9.455 6.592,7.54 13.32,14.964 20.153,22.288 2.977,3.19 7.92,2.062 9.649,-1.939 0.264,-0.612 0.441,-1.262 0.721,-2.075 5.781,0.854 11.152,2.759 16.078,5.855 0.551,0.348 0.922,1.373 0.947,2.101 0.168,4.634 -3.313,9.452 -7.748,10.863 -6.52,2.072 -12.672,0.712 -18.395,-2.481 -16.54,-9.23 -28.696,-22.32 -34.625,-40.604 -1.523,-4.699 -1.475,-9.542 0.181,-14.272 1.701,-4.859 6.98,-8.126 12.045,-7.367 0.701,0.105 1.621,0.694 1.908,1.31 2.429,5.18 3.919,10.612 4.069,16.459"
                 id="path249"
                 inkscape:connector-curvature="0"
                 style="fill:#ffffff" /></g></g></g></g></g></g></svg>