<?xml version="1.0" encoding="UTF-8" standalone="no"?>
<!-- Generator: Adobe Illustrator 16.0.3, SVG Export Plug-In . SVG Version: 6.00 Build 0)  -->

<svg
   xmlns:dc="http://purl.org/dc/elements/1.1/"
   xmlns:cc="http://creativecommons.org/ns#"
   xmlns:rdf="http://www.w3.org/1999/02/22-rdf-syntax-ns#"
   xmlns:svg="http://www.w3.org/2000/svg"
   xmlns="http://www.w3.org/2000/svg"
   xmlns:xlink="http://www.w3.org/1999/xlink"
   xmlns:sodipodi="http://sodipodi.sourceforge.net/DTD/sodipodi-0.dtd"
   xmlns:inkscape="http://www.inkscape.org/namespaces/inkscape"
   version="1.1"
   id="Ebene_1"
   x="0px"
   y="0px"
   width="267.6814"
   height="231.82001"
   viewBox="0 0 267.68138 231.82"
   enable-background="new 0 0 595.28 841.89"
   xml:space="preserve"
   inkscape:version="0.91 r13725"
   sodipodi:docname="comb_bed.svg"><metadata
     id="metadata47"><rdf:RDF><cc:Work
         rdf:about=""><dc:format>image/svg+xml</dc:format><dc:type
           rdf:resource="http://purl.org/dc/dcmitype/StillImage" /><dc:title></dc:title></cc:Work></rdf:RDF></metadata><defs
     id="defs45" /><sodipodi:namedview
     pagecolor="#ffffff"
     bordercolor="#666666"
     borderopacity="1"
     objecttolerance="10"
     gridtolerance="10"
     guidetolerance="10"
     inkscape:pageopacity="0"
     inkscape:pageshadow="2"
     inkscape:window-width="1416"
     inkscape:window-height="835"
     id="namedview43"
     showgrid="false"
     showborder="false"
     fit-margin-top="0"
     fit-margin-left="0"
     fit-margin-right="0"
     fit-margin-bottom="0"
     inkscape:zoom="0.28032165"
     inkscape:cx="133.63939"
     inkscape:cy="113.94549"
     inkscape:window-x="0"
     inkscape:window-y="0"
     inkscape:window-maximized="0"
     inkscape:current-layer="Ebene_1" /><g
     id="g3"
     transform="translate(-164.00063,-303.0705)"><defs
       id="defs5"><rect
         id="SVGID_1_"
         x="164"
         y="303.07001"
         width="267.68201"
         height="231.821" /></defs><clipPath
       id="SVGID_2_"><use
         xlink:href="#SVGID_1_"
         overflow="visible"
         id="use9"
         style="overflow:visible"
         x="0"
         y="0"
         width="100%"
         height="100%" /></clipPath><g
       clip-path="url(#SVGID_2_)"
       id="g11"><defs
         id="defs13"><rect
           id="SVGID_3_"
           x="164"
           y="303.07001"
           width="267.68201"
           height="231.821" /></defs><clipPath
         id="SVGID_4_"><use
           xlink:href="#SVGID_3_"
           overflow="visible"
           id="use17"
           style="overflow:visible"
           x="0"
           y="0"
           width="100%"
           height="100%" /></clipPath><g
         clip-path="url(#SVGID_4_)"
         id="g19"
         style="opacity:0.73000004"><g
           id="g21"><defs
             id="defs23"><rect
               id="SVGID_5_"
               x="156.672"
               y="302.25601"
               width="282.33701"
               height="239.14799" /></defs><clipPath
             id="SVGID_6_"><use
               xlink:href="#SVGID_5_"
               overflow="visible"
               id="use27"
               style="overflow:visible"
               x="0"
               y="0"
               width="100%"
               height="100%" /></clipPath><polygon
             clip-path="url(#SVGID_6_)"
             points="232.096,532.855 363.587,532.855 429.332,418.981 363.587,305.106 232.096,305.106 166.351,418.981 "
             id="polygon29"
             style="fill:#272e3e" /><polygon
             clip-path="url(#SVGID_6_)"
             points="232.096,532.855 363.587,532.855 429.332,418.981 363.587,305.106 232.096,305.106 166.351,418.981 "
             id="polygon31"
             style="fill:none;stroke:#3e3e40;stroke-width:4.0710001" /></g></g></g><g
       clip-path="url(#SVGID_2_)"
       id="g33"><defs
         id="defs35"><rect
           id="SVGID_7_"
           x="204.44299"
           y="361.22501"
           width="186.795"
           height="123.259" /></defs><clipPath
         id="SVGID_8_"><use
           xlink:href="#SVGID_7_"
           overflow="visible"
           id="use39"
           style="overflow:visible"
           x="0"
           y="0"
           width="100%"
           height="100%" /></clipPath><path
         clip-path="url(#SVGID_8_)"
         d="m 209.399,448.938 0,20.77 c -0.571,0.383 -1.143,0.764 -1.714,1.146 -0.998,-1.232 -2.835,-2.447 -2.866,-3.703 -0.238,-10.035 -0.376,-20.088 0.1,-30.105 0.078,-1.662 3.03,-3.965 5.09,-4.643 31.081,-10.18 62.187,-20.289 93.415,-30.007 5.518,-1.717 7.242,-4.185 6.959,-9.841 -0.512,-10.161 -0.145,-20.365 -0.145,-31.328 27.258,2.371 53.7,4.674 80.475,7.003 0.178,1.929 0.449,3.503 0.451,5.076 0.029,20.284 0.074,40.571 -0.074,60.855 -0.014,1.803 -1.375,3.598 -2.105,5.396 -0.896,-1.838 -2.357,-3.613 -2.564,-5.525 -0.408,-3.777 -0.119,-7.633 -0.119,-12.198 -2.582,1.061 -4.438,1.758 -6.238,2.575 -23.652,10.75 -47.262,21.598 -70.979,32.201 -3.678,1.645 -5.363,3.504 -5.1,7.736 0.404,6.518 0.105,13.078 0.105,20.139 l -6.35,0 0,-24.146 c -29.554,-3.814 -58.639,-7.568 -88.341,-11.401 m 4.873,-15.461 c 0.085,0.412 0.171,0.822 0.256,1.234 28.212,3.492 56.416,7.045 84.649,10.357 2.236,0.264 4.777,-0.869 6.99,-1.801 16.399,-6.904 32.75,-13.924 49.121,-20.904 9.274,-3.955 18.557,-7.896 27.836,-11.843 -0.063,-0.396 -0.127,-0.791 -0.188,-1.187 -6.552,-0.754 -13.103,-1.507 -19.507,-2.243 -0.131,-0.61 -0.268,-0.85 -0.204,-1.005 0.309,-0.75 0.675,-1.479 1.014,-2.218 2.872,-6.24 2.573,-7.151 -3.976,-9.006 -4.713,-1.334 -9.537,-2.295 -14.332,-3.32 -12.221,-2.613 -22.943,-1.198 -28.336,10.261 -4.614,0.704 -8.063,0.879 -11.299,1.797 -6.679,1.896 -13.25,4.167 -19.854,6.321 -24.06,7.844 -48.113,15.703 -72.17,23.557"
         id="path41"
         inkscape:connector-curvature="0"
         style="fill:#ffffff" /></g></g></svg>