<?xml version="1.0" encoding="UTF-8" standalone="no"?>
<!-- Generator: Adobe Illustrator 16.0.3, SVG Export Plug-In . SVG Version: 6.00 Build 0)  -->

<svg
   xmlns:dc="http://purl.org/dc/elements/1.1/"
   xmlns:cc="http://creativecommons.org/ns#"
   xmlns:rdf="http://www.w3.org/1999/02/22-rdf-syntax-ns#"
   xmlns:svg="http://www.w3.org/2000/svg"
   xmlns="http://www.w3.org/2000/svg"
   xmlns:xlink="http://www.w3.org/1999/xlink"
   xmlns:sodipodi="http://sodipodi.sourceforge.net/DTD/sodipodi-0.dtd"
   xmlns:inkscape="http://www.inkscape.org/namespaces/inkscape"
   version="1.1"
   id="Ebene_1"
   x="0px"
   y="0px"
   width="277.30038"
   height="240.14799"
   viewBox="0 0 277.30038 240.148"
   enable-background="new 0 0 595.281 841.891"
   xml:space="preserve"
   inkscape:version="0.91 r13725"
   sodipodi:docname="comb_price.svg"><metadata
     id="metadata139"><rdf:RDF><cc:Work
         rdf:about=""><dc:format>image/svg+xml</dc:format><dc:type
           rdf:resource="http://purl.org/dc/dcmitype/StillImage" /><dc:title></dc:title></cc:Work></rdf:RDF></metadata><defs
     id="defs137" /><sodipodi:namedview
     pagecolor="#ffffff"
     bordercolor="#666666"
     borderopacity="1"
     objecttolerance="10"
     gridtolerance="10"
     guidetolerance="10"
     inkscape:pageopacity="0"
     inkscape:pageshadow="2"
     inkscape:window-width="1383"
     inkscape:window-height="731"
     id="namedview135"
     showgrid="false"
     showborder="false"
     fit-margin-top="0"
     fit-margin-left="0"
     fit-margin-right="0"
     fit-margin-bottom="0"
     inkscape:zoom="0.39643422"
     inkscape:cx="147.65885"
     inkscape:cy="102.87623"
     inkscape:window-x="0"
     inkscape:window-y="0"
     inkscape:window-maximized="0"
     inkscape:current-layer="Ebene_1" /><g
     id="g3"
     transform="translate(-159.19631,-305.7415)"><g
       id="g5"><defs
         id="defs7"><rect
           id="SVGID_1_"
           x="125"
           y="297.741"
           width="345.69299"
           height="249.14999" /></defs><clipPath
         id="SVGID_2_"><use
           xlink:href="#SVGID_1_"
           overflow="visible"
           id="use11"
           style="overflow:visible"
           x="0"
           y="0"
           width="100%"
           height="100%" /></clipPath><g
         clip-path="url(#SVGID_2_)"
         id="g13"><g
           id="g15"><defs
             id="defs17"><rect
               id="SVGID_3_"
               x="125"
               y="297.741"
               width="345.69299"
               height="249.14999" /></defs><clipPath
             id="SVGID_4_"><use
               xlink:href="#SVGID_3_"
               overflow="visible"
               id="use21"
               style="overflow:visible"
               x="0"
               y="0"
               width="100%"
               height="100%" /></clipPath><g
             clip-path="url(#SVGID_4_)"
             id="g23"><g
               id="g25"
               style="opacity:0.73000004"><g
                 id="g27"><defs
                   id="defs29"><rect
                     id="SVGID_5_"
                     x="151.606"
                     y="298.99399"
                     width="292.48099"
                     height="247.741" /></defs><defs
                   id="defs32"><rect
                     id="SVGID_6_"
                     x="151.606"
                     y="298.99399"
                     width="292.48099"
                     height="247.741" /></defs><clipPath
                   id="SVGID_7_"><use
                     xlink:href="#SVGID_5_"
                     overflow="visible"
                     id="use36"
                     style="overflow:visible"
                     x="0"
                     y="0"
                     width="100%"
                     height="100%" /></clipPath><clipPath
                   id="SVGID_8_"
                   clip-path="url(#SVGID_7_)"><use
                     xlink:href="#SVGID_6_"
                     overflow="visible"
                     id="use39"
                     style="overflow:visible"
                     x="0"
                     y="0"
                     width="100%"
                     height="100%" /></clipPath><polygon
                   clip-path="url(#SVGID_8_)"
                   points="229.739,543.781 365.955,543.781 434.062,425.816 365.955,307.85 229.739,307.85 161.631,425.816 "
                   id="polygon41"
                   style="fill:#272e3e" /><polygon
                   clip-path="url(#SVGID_8_)"
                   points="229.739,543.781 365.955,543.781 434.062,425.816 365.955,307.85 229.739,307.85 161.631,425.816 "
                   id="polygon43"
                   style="fill:none;stroke:#3e3e40;stroke-width:4.21700001" /></g></g></g></g><g
           id="g45"><defs
             id="defs47"><rect
               id="SVGID_9_"
               x="125"
               y="297.741"
               width="345.69299"
               height="249.14999" /></defs><clipPath
             id="SVGID_10_"><use
               xlink:href="#SVGID_9_"
               overflow="visible"
               id="use51"
               style="overflow:visible"
               x="0"
               y="0"
               width="100%"
               height="100%" /></clipPath><g
             clip-path="url(#SVGID_10_)"
             id="g53"><g
               enable-background="new    "
               id="g55"><path
                 d="m 214.368,445.306 c 0,-1.603 0.229,-3.006 0.689,-4.209 0.459,-1.202 1.075,-2.238 1.848,-3.109 0.772,-0.869 1.667,-1.599 2.684,-2.185 1.017,-0.587 2.077,-1.061 3.182,-1.423 1.105,-0.361 2.215,-0.635 3.33,-0.821 1.114,-0.186 2.16,-0.308 3.138,-0.366 0,-0.782 -0.01,-1.55 -0.029,-2.303 -0.019,-0.753 -0.107,-1.428 -0.264,-2.024 -0.157,-0.596 -0.401,-1.08 -0.733,-1.451 -0.333,-0.372 -0.802,-0.558 -1.408,-0.558 -0.509,0 -0.943,0.112 -1.305,0.337 -0.362,0.226 -0.665,0.519 -0.909,0.88 -0.245,0.362 -0.43,0.773 -0.557,1.232 -0.127,0.46 -0.22,0.914 -0.279,1.364 l -8.213,-1.438 c 0.215,-1.682 0.694,-3.075 1.437,-4.18 0.743,-1.105 1.638,-1.98 2.684,-2.626 1.046,-0.645 2.19,-1.1 3.432,-1.363 1.242,-0.263 2.479,-0.396 3.71,-0.396 1.917,0 3.559,0.27 4.928,0.807 1.369,0.538 2.493,1.276 3.373,2.215 0.88,0.938 1.53,2.038 1.951,3.3 0.421,1.262 0.631,2.615 0.631,4.063 l 0,17.481 c 0,0.665 0.044,1.35 0.132,2.054 0.088,0.704 0.191,1.349 0.308,1.936 0.137,0.685 0.293,1.359 0.469,2.024 l -8.213,0.703 -0.938,-4.136 c -0.333,0.606 -0.768,1.184 -1.305,1.731 -0.538,0.547 -1.14,1.031 -1.804,1.451 -0.665,0.421 -1.369,0.758 -2.112,1.012 -0.743,0.254 -1.477,0.382 -2.2,0.382 -1.154,0 -2.2,-0.26 -3.139,-0.777 -0.939,-0.517 -1.745,-1.241 -2.42,-2.171 -0.675,-0.928 -1.193,-2.023 -1.555,-3.285 -0.362,-1.261 -0.543,-2.645 -0.543,-4.151 z m 8.272,-0.117 c 0,1.33 0.269,2.405 0.807,3.227 0.538,0.821 1.383,1.232 2.537,1.232 0.391,0 0.777,-0.104 1.159,-0.309 0.382,-0.205 0.729,-0.435 1.042,-0.689 0.352,-0.293 0.704,-0.625 1.056,-0.997 l 0,-9.415 c -0.938,0 -1.809,0.117 -2.61,0.352 -0.802,0.234 -1.501,0.626 -2.097,1.174 -0.597,0.547 -1.061,1.266 -1.394,2.155 -0.334,0.89 -0.5,1.98 -0.5,3.27 z"
                 id="path57"
                 inkscape:connector-curvature="0"
                 style="fill:#ffffff" /><path
                 d="m 244.727,454.547 0,-43.647 8.447,-1.056 0,15.575 c 0.646,-0.704 1.33,-1.35 2.053,-1.936 0.723,-0.587 1.457,-1.086 2.2,-1.496 0.743,-0.411 1.496,-0.733 2.258,-0.968 0.763,-0.235 1.506,-0.353 2.229,-0.353 1.114,0 2.17,0.304 3.167,0.909 0.998,0.606 1.867,1.59 2.611,2.948 0.743,1.359 1.334,3.144 1.774,5.354 0.44,2.21 0.66,4.918 0.66,8.124 0,3.051 -0.216,5.687 -0.646,7.905 -0.43,2.22 -1.061,4.058 -1.892,5.515 -0.831,1.457 -1.848,2.532 -3.05,3.227 -1.203,0.693 -2.577,1.041 -4.121,1.041 -0.782,0 -1.481,-0.068 -2.097,-0.205 -0.616,-0.138 -1.169,-0.323 -1.657,-0.558 -0.489,-0.234 -0.915,-0.503 -1.276,-0.807 -0.362,-0.303 -0.67,-0.611 -0.924,-0.924 -0.606,-0.743 -1.037,-1.584 -1.291,-2.522 l -2.053,4.575 -6.392,-0.701 z m 8.447,-13.728 c 0,1.76 0.118,3.212 0.352,4.355 0.235,1.145 0.547,2.044 0.938,2.698 0.391,0.656 0.831,1.115 1.32,1.379 0.488,0.264 0.987,0.396 1.496,0.396 1.037,0 1.848,-0.313 2.435,-0.939 0.587,-0.625 1.027,-1.471 1.32,-2.537 0.293,-1.065 0.474,-2.302 0.543,-3.71 0.068,-1.408 0.103,-2.894 0.103,-4.459 0,-1.427 -0.025,-2.757 -0.073,-3.988 -0.049,-1.232 -0.167,-2.303 -0.352,-3.212 -0.186,-0.909 -0.474,-1.628 -0.865,-2.156 -0.392,-0.528 -0.938,-0.792 -1.643,-0.792 -0.509,0 -1.085,0.122 -1.73,0.367 -0.646,0.244 -1.252,0.513 -1.819,0.807 -0.665,0.352 -1.339,0.732 -2.024,1.144 l 0,10.647 z"
                 id="path59"
                 inkscape:connector-curvature="0"
                 style="fill:#ffffff" /><path
                 d="m 289.868,447.536 5.778,0 0,-25.841 c -0.724,0.078 -1.418,0.156 -2.083,0.234 -0.567,0.059 -1.164,0.112 -1.79,0.161 -0.626,0.049 -1.134,0.073 -1.525,0.073 l -0.763,0 0,-6.307 10.237,-6.013 4.369,0 0,37.691 5.838,0 -0.352,7.362 -19.711,0 0,-7.36 z"
                 id="path61"
                 inkscape:connector-curvature="0"
                 style="fill:#ffffff" /><path
                 d="m 320.167,442.169 c 0.215,1.075 0.566,2.033 1.057,2.874 0.194,0.352 0.43,0.699 0.703,1.041 0.273,0.343 0.592,0.646 0.953,0.909 0.361,0.265 0.768,0.479 1.218,0.646 0.449,0.167 0.958,0.249 1.524,0.249 0.998,0 1.849,-0.171 2.553,-0.513 0.703,-0.342 1.28,-0.836 1.73,-1.481 0.449,-0.646 0.777,-1.427 0.982,-2.347 0.205,-0.919 0.309,-1.955 0.309,-3.109 0,-0.88 -0.108,-1.77 -0.323,-2.669 -0.216,-0.899 -0.542,-1.706 -0.982,-2.42 -0.44,-0.714 -0.993,-1.295 -1.657,-1.745 -0.665,-0.449 -1.457,-0.675 -2.376,-0.675 -1.056,0 -2.058,0.304 -3.007,0.909 -0.948,0.606 -1.784,1.35 -2.508,2.229 l -6.277,-2.61 1.937,-23.612 22.146,0 -0.704,7.04 -14.108,0 -0.969,10.501 c 0.529,-0.216 1.105,-0.411 1.731,-0.587 0.528,-0.156 1.144,-0.298 1.848,-0.426 0.704,-0.127 1.456,-0.19 2.259,-0.19 l 0.059,0 c 1.682,0 3.236,0.377 4.664,1.129 1.427,0.753 2.658,1.775 3.695,3.065 1.036,1.291 1.848,2.792 2.435,4.503 0.587,1.711 0.88,3.515 0.88,5.411 0,2.229 -0.338,4.282 -1.012,6.16 -0.675,1.877 -1.613,3.495 -2.816,4.854 -1.202,1.359 -2.63,2.42 -4.282,3.183 -1.652,0.762 -3.456,1.144 -5.411,1.144 -1.506,0 -2.959,-0.24 -4.355,-0.719 -1.398,-0.479 -2.68,-1.183 -3.844,-2.112 -1.163,-0.928 -2.166,-2.072 -3.006,-3.432 -0.841,-1.358 -1.447,-2.918 -1.818,-4.678 l 6.772,-2.522 z"
                 id="path63"
                 inkscape:connector-curvature="0"
                 style="fill:#ffffff" /></g></g></g><g
           id="g65"><defs
             id="defs67"><rect
               id="SVGID_11_"
               x="125"
               y="297.741"
               width="345.69299"
               height="249.14999" /></defs><clipPath
             id="SVGID_12_"><use
               xlink:href="#SVGID_11_"
               overflow="visible"
               id="use71"
               style="overflow:visible"
               x="0"
               y="0"
               width="100%"
               height="100%" /></clipPath><g
             clip-path="url(#SVGID_12_)"
             id="g73"><text
               transform="translate(341.9585,454.8982)"
               font-size="60.0714"
               id="text75"
               style="font-size:60.07139969px;font-family:FrancoisOne-Regular;fill:#ffffff" />
</g></g><g
           id="g77"><defs
             id="defs79"><rect
               id="SVGID_13_"
               x="125"
               y="297.741"
               width="345.69299"
               height="249.14999" /></defs><clipPath
             id="SVGID_14_"><use
               xlink:href="#SVGID_13_"
               overflow="visible"
               id="use83"
               style="overflow:visible"
               x="0"
               y="0"
               width="100%"
               height="100%" /></clipPath><g
             clip-path="url(#SVGID_14_)"
             id="g85"><g
               enable-background="new    "
               id="g87"><path
                 d="m 351.003,426.74 3.344,0 c 0.254,-2.229 0.704,-4.409 1.35,-6.541 0.646,-2.132 1.535,-4.033 2.67,-5.705 1.133,-1.672 2.521,-3.021 4.164,-4.048 1.643,-1.027 3.588,-1.54 5.838,-1.54 1.309,0 2.531,0.195 3.666,0.587 1.134,0.392 2.166,0.924 3.094,1.599 0.93,0.675 1.75,1.477 2.465,2.405 0.713,0.929 1.314,1.931 1.804,3.006 0.488,1.076 0.86,2.2 1.114,3.373 0.254,1.174 0.381,2.347 0.381,3.521 l -8.506,0.439 c 0,-0.117 -0.01,-0.396 -0.029,-0.836 -0.02,-0.439 -0.078,-0.953 -0.176,-1.54 -0.098,-0.586 -0.24,-1.202 -0.426,-1.848 -0.186,-0.646 -0.444,-1.241 -0.777,-1.789 -0.332,-0.547 -0.752,-0.997 -1.261,-1.35 -0.509,-0.352 -1.124,-0.527 -1.848,-0.527 -0.821,0 -1.521,0.303 -2.097,0.909 -0.578,0.606 -1.053,1.413 -1.424,2.42 -0.371,1.007 -0.664,2.16 -0.879,3.461 -0.216,1.301 -0.363,2.635 -0.44,4.004 l 13.316,0 0,4.224 -13.463,0 0,1.643 c 0,0.392 0.009,0.782 0.029,1.173 l 13.434,0 0,4.224 -13.229,0 c 0.117,1.448 0.298,2.797 0.542,4.048 0.245,1.252 0.588,2.343 1.027,3.271 0.439,0.93 0.987,1.657 1.643,2.186 0.654,0.528 1.451,0.792 2.391,0.792 0.919,0 1.667,-0.229 2.244,-0.689 0.576,-0.459 1.041,-1.041 1.393,-1.745 0.352,-0.704 0.605,-1.471 0.763,-2.303 0.157,-0.831 0.274,-1.617 0.353,-2.361 l 7.479,0.704 c 0,1.8 -0.26,3.54 -0.777,5.222 -0.519,1.682 -1.306,3.167 -2.361,4.458 -1.055,1.291 -2.386,2.322 -3.989,3.095 -1.603,0.773 -3.49,1.158 -5.661,1.158 -1.524,0 -2.903,-0.225 -4.136,-0.675 -1.232,-0.449 -2.327,-1.075 -3.285,-1.877 -0.958,-0.802 -1.794,-1.76 -2.508,-2.874 -0.714,-1.115 -1.324,-2.332 -1.833,-3.652 -0.509,-1.32 -0.924,-2.723 -1.247,-4.209 -0.322,-1.486 -0.572,-3.002 -0.748,-4.547 l -3.402,0 0,-4.224 3.109,0 c -0.02,-0.391 -0.029,-0.781 -0.029,-1.173 l 0,-1.643 -3.08,0 0,-4.226 z"
                 id="path89"
                 inkscape:connector-curvature="0"
                 style="fill:#ffffff" /></g></g></g><g
           id="g91"><defs
             id="defs93"><rect
               id="SVGID_15_"
               x="125"
               y="297.741"
               width="345.69299"
               height="249.14999" /></defs><clipPath
             id="SVGID_16_"><use
               xlink:href="#SVGID_15_"
               overflow="visible"
               id="use97"
               style="overflow:visible"
               x="0"
               y="0"
               width="100%"
               height="100%" /></clipPath><g
             clip-path="url(#SVGID_16_)"
             id="g99"><g
               id="g101"><defs
                 id="defs103"><rect
                   id="SVGID_17_"
                   x="125"
                   y="297.741"
                   width="345.69299"
                   height="249.14999" /></defs><clipPath
                 id="SVGID_18_"><use
                   xlink:href="#SVGID_17_"
                   overflow="visible"
                   id="use107"
                   style="overflow:visible"
                   x="0"
                   y="0"
                   width="100%"
                   height="100%" /></clipPath><g
                 clip-path="url(#SVGID_18_)"
                 id="g109"><g
                   id="g111"
                   style="opacity:0.68000016"><g
                     id="g113"><defs
                       id="defs115"><rect
                         id="SVGID_19_"
                         x="179.91701"
                         y="335.17999"
                         width="235.86"
                         height="77.557999" /></defs><clipPath
                       id="SVGID_20_"><use
                         xlink:href="#SVGID_19_"
                         overflow="visible"
                         id="use119"
                         style="overflow:visible"
                         x="0"
                         y="0"
                         width="100%"
                         height="100%" /></clipPath><g
                       clip-path="url(#SVGID_20_)"
                       id="g121"><g
                         enable-background="new    "
                         id="g123"><path
                           d="m 257.776,368.001 0,18.102 -5.183,0.232 0,-29.473 6.053,-0.232 7.659,17.676 0,-17.212 4.912,-0.464 0,29.473 -4.758,0.465 -8.683,-18.567 z"
                           id="path125"
                           inkscape:connector-curvature="0"
                           style="fill:#ffffff" /><path
                           d="m 275.026,380.01 c 0,-1.057 0.151,-1.982 0.455,-2.774 0.303,-0.793 0.709,-1.477 1.218,-2.051 0.509,-0.573 1.099,-1.054 1.77,-1.44 0.671,-0.386 1.37,-0.699 2.098,-0.938 0.729,-0.239 1.46,-0.419 2.195,-0.542 0.735,-0.122 1.424,-0.203 2.069,-0.241 0,-0.516 -0.007,-1.022 -0.02,-1.519 -0.013,-0.496 -0.071,-0.941 -0.174,-1.334 -0.103,-0.394 -0.264,-0.713 -0.483,-0.958 -0.219,-0.244 -0.529,-0.367 -0.928,-0.367 -0.335,0 -0.622,0.074 -0.86,0.223 -0.239,0.148 -0.438,0.342 -0.6,0.58 -0.162,0.238 -0.284,0.51 -0.368,0.813 -0.084,0.303 -0.145,0.603 -0.184,0.898 l -5.415,-0.947 c 0.142,-1.108 0.458,-2.027 0.948,-2.756 0.49,-0.729 1.08,-1.306 1.77,-1.73 0.689,-0.426 1.444,-0.726 2.263,-0.899 0.818,-0.174 1.634,-0.261 2.446,-0.261 1.264,0 2.347,0.177 3.249,0.531 0.902,0.354 1.644,0.842 2.224,1.46 0.58,0.619 1.009,1.345 1.286,2.176 0.277,0.832 0.416,1.725 0.416,2.679 l 0,11.526 c 0,0.438 0.029,0.89 0.087,1.354 0.058,0.464 0.126,0.89 0.203,1.276 0.09,0.451 0.193,0.896 0.31,1.334 l -5.415,0.465 -0.619,-2.728 c -0.22,0.4 -0.506,0.78 -0.861,1.142 -0.355,0.362 -0.751,0.68 -1.189,0.957 -0.438,0.277 -0.902,0.5 -1.392,0.667 -0.49,0.168 -0.974,0.252 -1.451,0.252 -0.761,0 -1.45,-0.171 -2.069,-0.513 -0.619,-0.342 -1.15,-0.818 -1.595,-1.432 -0.445,-0.611 -0.787,-1.334 -1.025,-2.166 -0.239,-0.831 -0.359,-1.743 -0.359,-2.737 z m 5.454,-0.077 c 0,0.877 0.177,1.586 0.532,2.127 0.354,0.542 0.912,0.813 1.673,0.813 0.258,0 0.513,-0.067 0.764,-0.203 0.251,-0.135 0.48,-0.286 0.687,-0.454 0.232,-0.193 0.464,-0.412 0.696,-0.657 l 0,-6.208 c -0.619,0 -1.193,0.077 -1.721,0.231 -0.529,0.155 -0.99,0.413 -1.383,0.773 -0.394,0.361 -0.7,0.835 -0.919,1.422 -0.219,0.587 -0.329,1.306 -0.329,2.156 z"
                           id="path127"
                           inkscape:connector-curvature="0"
                           style="fill:#ffffff" /><path
                           d="m 309.044,378.503 c -0.155,1.225 -0.378,2.35 -0.668,3.374 -0.29,1.025 -0.703,1.905 -1.237,2.64 -0.535,0.735 -1.222,1.31 -2.06,1.722 -0.838,0.412 -1.883,0.619 -3.133,0.619 -0.891,0 -1.702,-0.146 -2.438,-0.436 -0.734,-0.29 -1.399,-0.696 -1.992,-1.218 -0.593,-0.522 -1.109,-1.145 -1.547,-1.867 -0.438,-0.722 -0.806,-1.508 -1.103,-2.359 -0.297,-0.851 -0.519,-1.75 -0.667,-2.697 -0.148,-0.947 -0.223,-1.911 -0.223,-2.892 0,-1.431 0.158,-2.839 0.474,-4.226 0.315,-1.386 0.802,-2.627 1.46,-3.723 0.658,-1.096 1.496,-1.982 2.515,-2.659 1.018,-0.677 2.23,-1.015 3.635,-1.015 1.019,0 1.957,0.193 2.814,0.58 0.857,0.387 1.598,0.935 2.224,1.644 0.626,0.709 1.118,1.554 1.479,2.533 0.361,0.98 0.561,2.057 0.6,3.229 l -5.279,0.232 c -0.039,-0.322 -0.084,-0.699 -0.136,-1.132 -0.052,-0.432 -0.142,-0.847 -0.271,-1.247 -0.129,-0.399 -0.313,-0.737 -0.551,-1.016 -0.239,-0.276 -0.552,-0.415 -0.938,-0.415 -0.413,0 -0.757,0.129 -1.034,0.387 -0.277,0.258 -0.507,0.597 -0.688,1.015 -0.18,0.42 -0.318,0.89 -0.416,1.412 -0.096,0.522 -0.167,1.044 -0.212,1.566 -0.046,0.522 -0.071,1.016 -0.077,1.479 -0.007,0.464 -0.01,0.851 -0.01,1.16 0,0.309 0.003,0.696 0.01,1.16 0.006,0.465 0.035,0.955 0.087,1.471 0.052,0.516 0.128,1.031 0.231,1.547 0.103,0.516 0.252,0.979 0.445,1.393 0.193,0.412 0.438,0.747 0.734,1.005 0.297,0.259 0.664,0.387 1.103,0.387 0.271,0 0.509,-0.061 0.716,-0.184 0.206,-0.122 0.387,-0.28 0.541,-0.474 0.155,-0.193 0.287,-0.416 0.396,-0.667 0.109,-0.251 0.203,-0.506 0.281,-0.764 0.167,-0.619 0.264,-1.315 0.289,-2.089 l 4.646,0.525 z"
                           id="path129"
                           inkscape:connector-curvature="0"
                           style="fill:#ffffff" /><path
                           d="m 323.858,371.385 c 0,-1.019 -0.185,-1.753 -0.552,-2.205 -0.367,-0.451 -0.828,-0.677 -1.383,-0.677 -0.516,0 -1.057,0.139 -1.624,0.416 -0.567,0.277 -1.237,0.648 -2.011,1.112 l 0,16.07 -5.57,0.465 0,-29.241 5.57,-0.696 0,10.27 c 1.16,-1.083 2.275,-1.876 3.346,-2.379 1.069,-0.503 2.082,-0.754 3.035,-0.754 0.697,0 1.335,0.132 1.915,0.396 0.58,0.264 1.079,0.638 1.499,1.121 0.418,0.483 0.748,1.073 0.986,1.77 0.238,0.697 0.357,1.477 0.357,2.34 l 0,16.709 -5.569,0.465 0,-15.182 z"
                           id="path131"
                           inkscape:connector-curvature="0"
                           style="fill:#ffffff" /><path
                           d="m 335.481,364.056 0.561,-4.835 4.835,-0.696 0,5.531 4.564,0 -0.232,4.177 -4.313,0 0,12.28 c 0,0.438 0.09,0.797 0.271,1.073 0.181,0.277 0.409,0.493 0.687,0.648 0.277,0.154 0.583,0.258 0.918,0.31 0.336,0.051 0.658,0.077 0.968,0.077 0.399,0 0.728,-0.02 0.985,-0.059 0.143,-0.025 0.277,-0.051 0.406,-0.077 l 0,3.829 c -0.283,0.104 -0.631,0.193 -1.044,0.271 -0.348,0.064 -0.786,0.126 -1.315,0.185 -0.528,0.058 -1.16,0.087 -1.895,0.087 -0.606,0 -1.234,-0.087 -1.886,-0.262 -0.651,-0.174 -1.247,-0.464 -1.789,-0.87 -0.541,-0.406 -0.989,-0.944 -1.344,-1.614 -0.354,-0.671 -0.532,-1.502 -0.532,-2.495 l 0,-13.383 -3.113,0 0.232,-4.177 3.036,0 z"
                           id="path133"
                           inkscape:connector-curvature="0"
                           style="fill:#ffffff" /></g></g></g></g></g></g></g></g></g></g></g></svg>