<?xml version="1.0" encoding="UTF-8" standalone="no"?>
<!-- Generator: Adobe Illustrator 16.0.3, SVG Export Plug-In . SVG Version: 6.00 Build 0)  -->

<svg
   xmlns:dc="http://purl.org/dc/elements/1.1/"
   xmlns:cc="http://creativecommons.org/ns#"
   xmlns:rdf="http://www.w3.org/1999/02/22-rdf-syntax-ns#"
   xmlns:svg="http://www.w3.org/2000/svg"
   xmlns="http://www.w3.org/2000/svg"
   xmlns:xlink="http://www.w3.org/1999/xlink"
   xmlns:sodipodi="http://sodipodi.sourceforge.net/DTD/sodipodi-0.dtd"
   xmlns:inkscape="http://www.inkscape.org/namespaces/inkscape"
   version="1.1"
   id="Ebene_1"
   x="0px"
   y="0px"
   width="65.331337"
   height="37.955009"
   viewBox="0 0 65.331334 37.955009"
   enable-background="new 0 0 595.28 841.89"
   xml:space="preserve"
   inkscape:version="0.91 r13725"
   sodipodi:docname="comb_screw.svg"><metadata
     id="metadata17"><rdf:RDF><cc:Work
         rdf:about=""><dc:format>image/svg+xml</dc:format><dc:type
           rdf:resource="http://purl.org/dc/dcmitype/StillImage" /><dc:title></dc:title></cc:Work></rdf:RDF></metadata><defs
     id="defs15" /><sodipodi:namedview
     pagecolor="#ffffff"
     bordercolor="#666666"
     borderopacity="1"
     objecttolerance="10"
     gridtolerance="10"
     guidetolerance="10"
     inkscape:pageopacity="0"
     inkscape:pageshadow="2"
     inkscape:window-width="701"
     inkscape:window-height="480"
     id="namedview13"
     showgrid="false"
     showborder="false"
     fit-margin-top="0"
     fit-margin-left="0"
     fit-margin-right="0"
     fit-margin-bottom="0"
     inkscape:zoom="0.28032165"
     inkscape:cx="32.640015"
     inkscape:cy="19.943993"
     inkscape:window-x="0"
     inkscape:window-y="0"
     inkscape:window-maximized="0"
     inkscape:current-layer="Ebene_1" /><g
     id="g3"
     transform="translate(-265,-402.93399)"><defs
       id="defs5"><rect
         id="SVGID_1_"
         x="265"
         y="402.93399"
         width="65.333"
         height="37.957001" /></defs><clipPath
       id="SVGID_2_"><use
         xlink:href="#SVGID_1_"
         overflow="visible"
         id="use9"
         style="overflow:visible"
         x="0"
         y="0"
         width="100%"
         height="100%" /></clipPath><path
       clip-path="url(#SVGID_2_)"
       d="m 274.458,418.515 c 0.057,0.022 0.114,0.046 0.171,0.068 -0.357,0.964 -0.714,1.929 -1.071,2.894 -0.06,-0.022 -0.121,-0.044 -0.182,-0.066 -0.1,-1.034 0.023,-2.021 0.652,-2.9 -0.062,0.279 -0.124,0.559 -0.186,0.838 0.035,0.016 0.07,0.031 0.105,0.047 0.17,-0.294 0.341,-0.587 0.511,-0.881 m 36.049,8.96 c 0.528,-1.203 1.022,-2.326 1.517,-3.449 0.055,-0.004 0.111,-0.006 0.166,-0.008 0.102,0.93 0.217,1.857 0.299,2.791 0.043,0.514 -0.207,0.736 -0.746,0.676 -0.388,-0.046 -0.783,-0.01 -1.236,-0.01 m -34.29,-6.338 c -0.178,1.169 -0.348,2.289 -0.534,3.511 -2.809,-0.783 -5.586,-1.557 -8.362,-2.33 0.003,-0.063 0.006,-0.123 0.01,-0.186 1.776,-0.266 3.552,-0.532 5.317,-0.796 0.176,0.452 0.316,0.814 0.533,1.371 0.557,-1.575 1.802,-1.478 3.036,-1.57 m 3.321,4.441 c 0.417,-1.373 0.811,-2.689 1.226,-4.001 0.036,-0.113 0.199,-0.255 0.313,-0.263 0.997,-0.074 1.996,-0.121 3.012,-0.177 -0.379,1.777 -0.75,3.517 -1.131,5.31 -1.152,-0.293 -2.294,-0.582 -3.42,-0.869 m 26.444,1.996 -3.552,0 c 0.808,-2.033 1.603,-4.045 2.412,-6.05 0.04,-0.102 0.185,-0.218 0.289,-0.226 0.758,-0.055 1.519,-0.084 2.229,-0.117 -0.464,2.153 -0.915,4.245 -1.378,6.393 m -13.981,-6.541 c -0.493,2.077 -0.977,4.118 -1.476,6.219 -1.149,-0.09 -2.376,-0.186 -3.655,-0.287 0.597,-1.885 1.167,-3.701 1.755,-5.513 0.035,-0.109 0.204,-0.24 0.318,-0.248 1.018,-0.072 2.037,-0.118 3.058,-0.171 m -14.552,3.766 c 0.622,-3.414 1.821,-6.605 3.536,-9.625 0.042,0.611 0.101,1.232 -0.034,1.809 -0.274,1.168 -0.641,2.313 -0.991,3.462 -0.661,2.167 -1.327,4.333 -2.013,6.491 -0.136,0.426 -0.371,0.82 -0.595,1.305 -0.781,-1.383 -1.085,-2.73 -0.793,-4.162 0.4,-1.969 0.817,-3.934 1.287,-5.887 0.251,-1.039 0.872,-1.862 1.917,-2.512 -1.587,2.923 -2.299,5.935 -2.314,9.119 m 17.192,2.717 c 0.781,-2.139 1.526,-4.189 2.285,-6.236 0.036,-0.096 0.187,-0.212 0.286,-0.213 0.959,-0.017 1.918,-0.01 2.916,-0.01 -0.574,2.179 -1.137,4.318 -1.701,6.458 l -3.786,0 z m -6.32,-13.586 c -2.283,5.84 -3.07,8.552 -2.806,9.857 0.8,-3.462 1.825,-6.712 3.721,-9.78 -0.04,0.344 -0.042,0.559 -0.093,0.761 -0.566,2.252 -1.12,4.508 -1.718,6.753 -0.568,2.131 -1.137,4.264 -1.8,6.366 -0.284,0.898 -0.809,1.721 -1.225,2.576 -0.718,-1.346 -0.829,-2.723 -0.577,-4.051 0.547,-2.881 1.188,-5.747 1.91,-8.588 0.386,-1.523 1.318,-2.779 2.588,-3.894 m 16.626,0.162 c 0.115,0.037 0.229,0.075 0.343,0.112 -0.753,5.884 -2.351,11.479 -5.769,16.61 -0.086,-0.238 -0.113,-0.307 -0.135,-0.377 -0.033,-0.115 -0.066,-0.229 -0.092,-0.344 -0.323,-1.48 -0.194,-2.953 0.193,-4.395 0.677,-2.51 1.433,-4.999 2.115,-7.506 0.453,-1.67 1.223,-3.132 2.623,-4.394 -1.408,3.647 -2.486,7.258 -3.197,10.751 1.259,-3.357 2.589,-6.906 3.919,-10.457 m -8.158,-0.304 c 0.394,1.405 0.469,2.858 0.173,4.306 -0.822,4.012 -2.363,7.76 -4.259,11.372 -0.239,0.455 -0.592,0.854 -0.951,1.359 -0.563,-1.508 -0.563,-2.93 -0.2,-4.316 0.676,-2.572 1.412,-5.131 2.205,-7.67 0.456,-1.463 1.061,-2.88 1.627,-4.307 0.15,-0.378 0.405,-0.713 0.611,-1.068 0.037,0.019 0.074,0.036 0.111,0.055 -0.946,3.706 -1.892,7.412 -2.838,11.116 0.067,0.021 0.133,0.039 0.199,0.059 1.107,-3.634 2.213,-7.268 3.322,-10.906 m 10.68,17.769 c -0.635,-1.875 -0.659,-3.588 -0.281,-5.275 0.887,-3.973 2.196,-7.814 3.846,-11.538 0.041,-0.091 0.109,-0.17 0.246,-0.378 -0.334,3.672 -1.297,7.063 -2.108,10.484 1.476,-3.202 2.198,-6.62 2.997,-10.104 0.058,0.248 0.109,0.415 0.136,0.587 0.255,1.677 0.192,3.351 -0.17,5.001 -0.733,3.334 -2.09,6.444 -3.556,9.504 -0.266,0.56 -0.675,1.053 -1.11,1.719 m 9.573,-13.823 c 1.446,-1.246 2.812,-2.553 3.911,-4.13 -0.904,0.638 -1.81,1.274 -2.715,1.913 -0.008,-0.017 -0.019,-0.032 -0.028,-0.05 1.536,-1.57 3.071,-3.141 4.606,-4.712 -0.013,-0.012 -0.025,-0.023 -0.037,-0.035 -1.401,1.141 -2.801,2.282 -4.201,3.425 -0.049,-0.056 -0.098,-0.11 -0.148,-0.165 2.008,-2.141 4.205,-4.116 5.876,-6.56 -1.937,1.698 -3.862,3.386 -5.786,5.072 -0.068,-0.074 -0.137,-0.147 -0.205,-0.222 1.262,-1.224 2.565,-2.405 3.772,-3.679 1.212,-1.276 2.328,-2.644 3.501,-3.987 0.296,0.811 0.585,1.628 0.893,2.438 1.553,4.087 2.422,8.322 2.756,12.675 0.028,0.376 -0.053,0.594 -0.406,0.787 -0.811,0.445 -1.584,0.953 -2.479,1.501 0.91,0.584 1.761,1.109 2.587,1.674 0.174,0.119 0.358,0.385 0.355,0.578 -0.067,3.926 -0.51,7.795 -1.807,11.527 -0.518,1.492 -1.164,2.924 -2.045,4.273 -0.937,-1.207 -1.845,-2.375 -2.752,-3.543 0.02,-0.018 0.039,-0.035 0.059,-0.053 0.672,0.563 1.344,1.123 2.016,1.686 0.038,-0.045 0.076,-0.09 0.114,-0.133 -1.527,-1.576 -3.056,-3.154 -4.583,-4.73 0.011,-0.012 0.023,-0.025 0.033,-0.037 0.428,0.303 0.854,0.605 1.281,0.906 0.02,-0.027 0.039,-0.055 0.059,-0.082 -1.732,-1.531 -3.465,-3.064 -5.196,-4.594 0.031,-0.039 0.062,-0.078 0.093,-0.117 0.551,0.424 1.103,0.848 1.654,1.271 0.038,-0.045 0.076,-0.088 0.114,-0.131 -0.782,-0.742 -1.572,-1.475 -2.343,-2.227 -0.592,-0.578 -1.196,-1.15 -1.728,-1.783 -0.808,-0.961 -0.998,-2.051 -0.562,-3.264 0.49,-1.363 1.203,-2.572 2.266,-3.557 1.077,-1 2.174,-1.978 3.385,-3.076 -0.856,0.424 -1.583,0.782 -2.31,1.141 m -17.562,13.768 c 0.635,-0.795 1.266,-1.596 1.908,-2.385 0.114,-0.141 0.279,-0.342 0.424,-0.344 1.437,-0.025 2.875,-0.016 4.256,-0.016 0.338,1.049 0.688,2.143 1.067,3.324 0.987,-0.643 1.632,-1.387 2.005,-2.266 0.475,-1.115 1.217,-1.439 2.37,-1.416 0.793,0.016 1.353,0.158 1.95,0.742 1.41,1.373 3.002,2.561 4.408,3.938 2.199,2.152 4.307,4.396 6.445,6.609 0.354,0.367 0.668,0.771 1.036,1.201 1.097,-1.24 1.815,-2.502 2.373,-3.855 1.28,-3.104 1.951,-6.365 2.365,-9.68 0.137,-1.098 0.202,-2.203 0.244,-3.307 0.009,-0.236 -0.162,-0.561 -0.354,-0.715 -0.705,-0.563 -1.453,-1.068 -2.257,-1.646 0.745,-0.405 1.427,-0.781 2.114,-1.147 0.27,-0.143 0.48,-0.269 0.463,-0.655 -0.234,-5.073 -1.294,-9.961 -3.288,-14.635 -0.337,-0.79 -0.785,-1.53 -1.192,-2.316 -4.074,4.275 -8.088,8.486 -12.22,12.821 -0.304,-1.728 -0.539,-3.279 -1.593,-4.589 -1.01,1.094 -1.764,2.298 -2.288,3.618 -0.271,0.684 -0.642,0.813 -1.289,0.706 -0.678,-0.111 -1.37,-0.137 -2.099,-0.204 -0.047,-1.3 -0.266,-2.524 -1.107,-3.608 -1.107,0.85 -2.054,1.818 -2.801,2.962 -0.264,0.402 -0.547,0.522 -1.003,0.512 -1.2,-0.029 -2.401,-0.01 -3.532,-0.01 -0.319,-1.139 -0.624,-2.228 -0.97,-3.466 -0.387,0.33 -0.677,0.505 -0.87,0.755 -0.623,0.811 -1.202,1.653 -1.817,2.471 -0.124,0.165 -0.322,0.369 -0.5,0.383 -1.161,0.094 -2.325,0.14 -3.57,0.206 0.032,-1.277 0.214,-2.572 -0.527,-3.761 -1.623,0.789 -2.871,1.957 -3.741,3.511 -0.214,0.382 -0.451,0.51 -0.875,0.523 -0.905,0.026 -1.808,0.121 -2.759,0.191 -0.097,-0.873 -0.161,-1.769 -0.901,-2.433 -1.447,0.778 -2.833,1.592 -3.827,2.936 -0.124,0.168 -0.364,0.282 -0.574,0.348 -0.449,0.14 -0.914,0.231 -1.379,0.345 -0.159,-0.377 -0.314,-0.748 -0.48,-1.143 -0.761,0.26 -1.209,0.782 -1.542,1.39 -0.227,0.413 -0.54,0.626 -0.962,0.793 -2.347,0.925 -4.618,2.001 -6.681,3.473 -0.271,0.193 -0.533,0.399 -0.912,0.684 0.592,0.195 1.08,0.355 1.568,0.518 2.915,0.975 5.829,1.955 8.747,2.92 0.386,0.129 0.575,0.336 0.73,0.734 0.333,0.85 0.786,1.652 1.19,2.475 0.077,0 0.155,0 0.233,0 0.325,-0.5 0.674,-0.986 0.966,-1.504 0.178,-0.316 0.336,-0.381 0.699,-0.275 1.134,0.33 2.28,0.625 3.433,0.885 0.403,0.09 0.542,0.281 0.588,0.656 0.114,0.912 0.437,1.744 1.126,2.613 0.577,-0.814 1.1,-1.568 1.642,-2.307 0.113,-0.154 0.301,-0.369 0.447,-0.363 1.437,0.051 2.872,0.143 4.268,0.221 0.3,0.838 0.595,1.662 0.923,2.578 0.869,-0.5 1.437,-1.123 1.826,-1.869 0.313,-0.604 0.706,-0.824 1.382,-0.797 1.221,0.053 2.446,0.016 3.641,0.016 0.256,0.857 0.516,1.729 0.776,2.6 0.1,0.019 0.199,0.036 0.297,0.054"
       id="path11"
       inkscape:connector-curvature="0"
       style="fill:#ffffff" /></g></svg>