<?xml version="1.0" encoding="UTF-8" standalone="no"?>
<!-- Generator: Adobe Illustrator 16.0.3, SVG Export Plug-In . SVG Version: 6.00 Build 0)  -->

<svg
   xmlns:dc="http://purl.org/dc/elements/1.1/"
   xmlns:cc="http://creativecommons.org/ns#"
   xmlns:rdf="http://www.w3.org/1999/02/22-rdf-syntax-ns#"
   xmlns:svg="http://www.w3.org/2000/svg"
   xmlns="http://www.w3.org/2000/svg"
   xmlns:xlink="http://www.w3.org/1999/xlink"
   xmlns:sodipodi="http://sodipodi.sourceforge.net/DTD/sodipodi-0.dtd"
   xmlns:inkscape="http://www.inkscape.org/namespaces/inkscape"
   version="1.1"
   id="Ebene_1"
   x="0px"
   y="0px"
   width="277.29968"
   height="240.149"
   viewBox="0 0 277.29967 240.149"
   enable-background="new 0 0 595.28 841.89"
   xml:space="preserve"
   inkscape:version="0.91 r13725"
   sodipodi:docname="Logo.svg"><metadata
     id="metadata67"><rdf:RDF><cc:Work
         rdf:about=""><dc:format>image/svg+xml</dc:format><dc:type
           rdf:resource="http://purl.org/dc/dcmitype/StillImage" /><dc:title></dc:title></cc:Work></rdf:RDF></metadata><defs
     id="defs65" /><sodipodi:namedview
     pagecolor="#ffffff"
     bordercolor="#666666"
     borderopacity="1"
     objecttolerance="10"
     gridtolerance="10"
     guidetolerance="10"
     inkscape:pageopacity="0"
     inkscape:pageshadow="2"
     inkscape:window-width="1279"
     inkscape:window-height="690"
     id="namedview63"
     showgrid="false"
     showborder="false"
     fit-margin-top="0"
     fit-margin-left="0"
     fit-margin-right="0"
     fit-margin-bottom="0"
     inkscape:zoom="0.28032165"
     inkscape:cx="138.64001"
     inkscape:cy="123.94449"
     inkscape:window-x="0"
     inkscape:window-y="0"
     inkscape:window-maximized="0"
     inkscape:current-layer="Ebene_1" /><g
     id="g3"
     transform="translate(-159,-304.7405)"><defs
       id="defs5"><rect
         id="SVGID_1_"
         x="159"
         y="304.73999"
         width="277.29999"
         height="240.151" /></defs><clipPath
       id="SVGID_2_"><use
         xlink:href="#SVGID_1_"
         overflow="visible"
         id="use9"
         style="overflow:visible"
         x="0"
         y="0"
         width="100%"
         height="100%" /></clipPath><g
       clip-path="url(#SVGID_2_)"
       id="g11"><defs
         id="defs13"><rect
           id="SVGID_3_"
           x="159"
           y="304.73999"
           width="277.29999"
           height="240.151" /></defs><clipPath
         id="SVGID_4_"><use
           xlink:href="#SVGID_3_"
           overflow="visible"
           id="use17"
           style="overflow:visible"
           x="0"
           y="0"
           width="100%"
           height="100%" /></clipPath><g
         clip-path="url(#SVGID_4_)"
         id="g19"
         style="opacity:0.73000004"><g
           id="g21"><defs
             id="defs23"><rect
               id="SVGID_5_"
               x="151.409"
               y="297.99301"
               width="292.48099"
               height="247.742" /></defs><clipPath
             id="SVGID_6_"><use
               xlink:href="#SVGID_5_"
               overflow="visible"
               id="use27"
               style="overflow:visible"
               x="0"
               y="0"
               width="100%"
               height="100%" /></clipPath><polygon
             clip-path="url(#SVGID_6_)"
             points="229.543,542.781 365.758,542.781 433.865,424.816 365.758,306.849 229.543,306.849 161.434,424.816 "
             id="polygon29"
             style="fill:#272e3e" /><g
             clip-path="url(#SVGID_6_)"
             id="g31"><defs
               id="defs33"><rect
                 id="SVGID_7_"
                 x="151.409"
                 y="297.99301"
                 width="292.479"
                 height="247.742" /></defs><clipPath
               id="SVGID_8_"><use
                 xlink:href="#SVGID_7_"
                 overflow="visible"
                 id="use37"
                 style="overflow:visible"
                 x="0"
                 y="0"
                 width="100%"
                 height="100%" /></clipPath><polygon
               clip-path="url(#SVGID_8_)"
               points="229.543,542.781 365.758,542.781 433.865,424.816 365.758,306.849 229.543,306.849 161.434,424.816 "
               id="polygon39"
               style="fill:none;stroke:#3e3e40;stroke-width:4.21700001" /></g></g></g></g><polygon
       clip-path="url(#SVGID_2_)"
       points="232.87,537.018 362.43,537.018 427.209,424.816 362.43,312.614 232.87,312.614 168.092,424.816 "
       id="polygon41"
       style="fill:#ce5d18" /><g
       clip-path="url(#SVGID_2_)"
       id="g43"><defs
         id="defs45"><rect
           id="SVGID_9_"
           x="159"
           y="304.73999"
           width="277.29999"
           height="240.151" /></defs><clipPath
         id="SVGID_10_"><use
           xlink:href="#SVGID_9_"
           overflow="visible"
           id="use49"
           style="overflow:visible"
           x="0"
           y="0"
           width="100%"
           height="100%" /></clipPath><path
         clip-path="url(#SVGID_10_)"
         d="m 340.362,308.987 c 1.313,1.448 2.745,2.794 4.153,4.156 2.656,2.569 5.32,5.134 8.008,7.672 0.531,0.501 1.18,0.878 1.882,1.39 0.021,-2.59 -0.611,-4.754 -2.16,-6.566 m 2.224,-6.089 c 0.069,-0.079 0.139,-0.158 0.209,-0.236 m -48.201,38.032 c -1.707,-1.3 -3.301,-2.513 -4.895,-3.726 -0.082,0.04 -0.164,0.08 -0.246,0.121 0.592,1.408 1.162,2.825 1.784,4.218 0.343,0.771 0.878,0.894 1.599,0.377 0.515,-0.369 1.11,-0.631 1.758,-0.99 m 49.505,-36.337 c -2.043,-1.808 -3.742,-0.687 -5.577,0.159 1.18,1.529 2.31,2.993 3.542,4.591 m -4.767,4.376 c -1.682,-1.63 -3.287,-3.196 -4.916,-4.739 -0.141,-0.134 -0.486,-0.206 -0.654,-0.13 -1.483,0.684 -2.946,1.406 -4.439,2.132 1.947,2.238 3.852,4.428 5.816,6.685 1.411,-1.331 2.812,-2.646 4.193,-3.948 m -36.168,23.773 c 1.598,-0.884 3.352,-1.856 5.07,-2.81 -2.762,-2.265 -5.488,-4.504 -8.23,-6.729 -0.137,-0.111 -0.437,-0.164 -0.59,-0.092 -1.127,0.521 -2.234,1.083 -3.277,1.595 2.367,2.708 4.667,5.337 7.027,8.036 m 14.782,-20.399 c 2.345,2.572 4.651,5.103 7.027,7.709 1.569,-1.038 3.243,-2.146 4.989,-3.301 -2.342,-2.219 -4.594,-4.361 -6.867,-6.482 -0.137,-0.127 -0.48,-0.182 -0.65,-0.103 -1.508,0.705 -3,1.446 -4.499,2.177 m 1.361,11.342 c -2.808,-2.437 -5.494,-4.773 -8.196,-7.092 -0.127,-0.109 -0.436,-0.154 -0.578,-0.079 -1.381,0.735 -2.744,1.504 -4.168,2.294 2.543,2.655 5.041,5.264 7.538,7.873 1.726,-0.958 3.55,-1.969 5.404,-2.996 m -1.729,-24.393 c 7.879,6.53 11.149,9.78 11.805,11.851 -3.881,-4.309 -7.916,-8.137 -13.049,-11.015 0.328,0.458 0.502,0.764 0.733,1.012 2.591,2.767 5.167,5.55 7.796,8.278 2.497,2.594 4.996,5.189 7.607,7.663 1.115,1.059 2.516,1.816 3.787,2.71 -0.041,-2.489 -0.973,-4.544 -2.383,-6.238 -3.06,-3.68 -6.242,-7.265 -9.521,-10.75 -1.755,-1.866 -4.079,-2.924 -6.775,-3.511 m -23.603,13.389 c -0.134,0.143 -0.267,0.287 -0.401,0.431 5.731,7.801 12.438,14.523 21.377,19.141 -0.066,-0.404 -0.082,-0.525 -0.107,-0.642 -0.043,-0.19 -0.086,-0.377 -0.141,-0.563 -0.711,-2.369 -2.061,-4.369 -3.754,-6.118 -2.951,-3.049 -5.998,-6.002 -8.955,-9.043 -1.97,-2.024 -4.226,-3.502 -7.223,-4.193 4.898,4.09 9.292,8.389 13.072,12.816 -4.455,-3.801 -9.162,-7.814 -13.868,-11.829 m 11.404,-6.891 c 0.551,2.318 1.592,4.451 3.16,6.283 4.348,5.075 9.514,9.206 15.076,12.861 0.702,0.463 1.52,0.749 2.434,1.188 -0.391,-2.598 -1.514,-4.63 -3.131,-6.319 -3,-3.138 -6.074,-6.207 -9.215,-9.204 -1.81,-1.727 -3.793,-3.272 -5.731,-4.861 -0.513,-0.419 -1.142,-0.697 -1.718,-1.04 -0.037,0.055 -0.076,0.11 -0.113,0.165 4.281,4.541 8.564,9.083 12.846,13.624 -0.08,0.08 -0.158,0.16 -0.238,0.239 -4.454,-4.309 -8.908,-8.618 -13.37,-12.936 m -1.186,33.812 c -0.576,-3.179 -1.896,-5.643 -3.771,-7.753 -4.41,-4.969 -9.318,-9.414 -14.618,-13.424 -0.131,-0.1 -0.292,-0.156 -0.653,-0.345 3.384,4.976 7.44,9.053 11.306,13.294 -4.638,-3.401 -8.375,-7.708 -12.271,-12.049 0.113,0.399 0.172,0.679 0.271,0.946 0.962,2.595 2.374,4.932 4.199,7.003 3.687,4.179 8.081,7.543 12.595,10.754 0.823,0.587 1.792,0.968 2.942,1.574 m -24.6,-12.155 c -3.053,-0.632 -6.035,-1.419 -8.852,-2.8 1.796,0.192 3.592,0.388 5.388,0.584 l 0.003,-0.094 c -3.434,-1.027 -6.869,-2.056 -10.304,-3.082 0.009,-0.027 0.018,-0.056 0.026,-0.082 2.902,0.521 5.804,1.044 8.706,1.565 0.027,-0.117 0.054,-0.234 0.081,-0.351 -4.559,-1.467 -9.258,-2.549 -13.578,-4.715 4.109,0.891 8.191,1.776 12.273,2.662 0.039,-0.16 0.078,-0.319 0.116,-0.479 -2.767,-0.747 -5.563,-1.404 -8.294,-2.265 -2.739,-0.863 -5.415,-1.933 -8.152,-2.922 0.219,1.393 0.454,2.785 0.655,4.185 1.017,7.063 3.129,13.795 6.095,20.273 0.257,0.561 0.544,0.806 1.203,0.803 1.507,-0.007 3.015,0.105 4.726,0.179 -0.838,1.554 -1.637,2.979 -2.366,4.437 -0.155,0.309 -0.21,0.833 -0.051,1.107 3.201,5.549 6.894,10.723 11.697,15.024 1.921,1.719 3.976,3.252 6.302,4.479 0.382,-2.461 0.753,-4.846 1.123,-7.231 l -0.123,-0.027 c -0.515,1.332 -1.031,2.666 -1.546,3.999 -0.089,-0.034 -0.179,-0.068 -0.268,-0.101 0.934,-3.458 1.867,-6.917 2.801,-10.376 l -0.078,-0.026 c -0.37,0.768 -0.741,1.538 -1.111,2.306 -0.05,-0.023 -0.099,-0.047 -0.148,-0.07 1.26,-3.557 2.52,-7.112 3.78,-10.669 -0.074,-0.032 -0.148,-0.063 -0.222,-0.096 -0.453,1.042 -0.905,2.084 -1.358,3.125 -0.088,-0.032 -0.177,-0.063 -0.265,-0.096 0.529,-1.677 1.078,-3.348 1.582,-5.032 0.387,-1.294 0.798,-2.588 1.056,-3.91 0.391,-2.013 -0.201,-3.72 -1.782,-5.104 -1.777,-1.559 -3.751,-2.719 -6.048,-3.285 -2.329,-0.574 -4.669,-1.103 -7.265,-1.712 1.554,-0.076 2.876,-0.139 4.198,-0.203 m 65.93,-21.522 c -0.449,0.487 0.629,-3.831 -0.462,1.623 0.198,1.479 0.187,2.982 0.261,4.477 -0.111,0.061 -0.222,0.124 -0.332,0.185 -0.859,-0.457 -1.744,-0.875 -2.57,-1.384 -0.504,-0.311 -0.781,-0.279 -1.215,0.16 -1.357,1.369 -2.76,2.697 -4.201,3.977 -0.504,0.449 -0.549,0.833 -0.319,1.406 0.56,1.393 0.756,2.833 0.461,4.619 -1.468,-0.707 -2.812,-1.369 -4.17,-1.995 -0.283,-0.13 -0.722,-0.288 -0.927,-0.164 -2.008,1.21 -3.984,2.479 -5.914,3.696 0.234,1.431 0.464,2.841 0.72,4.406 -1.636,-0.025 -2.938,-0.463 -4.084,-1.223 -0.925,-0.612 -1.661,-0.62 -2.603,-0.043 -1.701,1.042 -3.479,1.957 -5.186,2.904 0.313,1.426 0.631,2.876 0.949,4.324 -0.126,0.104 -0.252,0.208 -0.379,0.312 -1.535,-0.635 -3.068,-1.277 -4.61,-1.896 -0.274,-0.11 -0.668,-0.266 -0.876,-0.155 -2.072,1.101 -4.115,2.253 -6.089,3.347 0.349,1.763 0.714,3.602 1.108,5.588 -1.92,-0.136 -3.428,-0.688 -4.655,-1.646 -1.56,-1.218 -2.876,-1.092 -4.503,-0.147 -1.12,0.651 -1.805,1.294 -2.198,2.603 -0.924,3.076 -2.259,6.03 -3.177,9.107 -1.434,4.813 -2.668,9.684 -3.969,14.532 -0.216,0.805 -0.344,1.632 -0.53,2.536 -2.546,-0.903 -4.57,-2.134 -6.436,-3.624 -4.284,-3.419 -7.821,-7.541 -11.036,-11.948 -1.062,-1.455 -2.03,-2.98 -2.963,-4.522 -0.201,-0.333 -0.214,-0.933 -0.061,-1.303 0.562,-1.359 1.23,-2.676 1.919,-4.137 -1.384,0.013 -2.655,0.015 -3.925,0.037 -0.499,0.009 -0.899,-0.004 -1.179,-0.57 -3.681,-7.427 -6.034,-15.241 -6.886,-23.49 -0.144,-1.394 -0.091,-2.808 -0.13,-4.251 9.198,2.879 18.259,5.716 27.586,8.636 -0.934,-2.707 -1.826,-5.11 -1.358,-7.813 2.307,0.764 4.336,1.885 6.129,3.355 0.929,0.761 1.558,0.65 2.398,-0.014 0.881,-0.694 1.848,-1.278 2.834,-1.95 -0.96,-1.895 -1.617,-3.816 -1.273,-6.028 2.254,0.335 4.369,0.97 6.34,2.011 0.695,0.367 1.195,0.314 1.838,-0.062 1.689,-0.991 3.42,-1.914 5.033,-2.81 -0.445,-1.878 -0.871,-3.673 -1.356,-5.714 0.813,0.164 1.366,0.186 1.839,0.389 1.529,0.664 3.024,1.41 4.549,2.091 0.307,0.136 0.752,0.27 1.017,0.148 1.729,-0.784 3.428,-1.64 5.258,-2.53 -1.056,-1.796 -2.341,-3.501 -2.224,-5.783 2.941,-0.16 5.646,0.52 8.117,2.05 0.608,0.376 1.049,0.371 1.664,0.053"
         id="path51"
         inkscape:connector-curvature="0"
         style="fill:#272e3e" /><path
         clip-path="url(#SVGID_10_)"
         d="m 332.553,484.393 c -1.041,3.332 -4.557,14.734 -6.17,22.545 -0.104,0.363 -0.131,0.676 -0.104,1.119 0,0.598 0.338,1.223 0.129,1.951 -0.129,0.549 0,1.25 -0.025,1.928 0,0.338 0,0.703 -0.156,1.041 -0.285,0.703 -0.494,1.275 0,1.9 -0.104,0.91 0.156,1.744 0.313,2.654 0.078,0.34 0,0.678 0,1.016 0,0.338 -0.025,0.678 0.078,0.965 0.234,0.625 0.26,1.275 0.313,1.871 0,0.602 0.26,0.992 0.677,1.408 0.521,0.365 1.146,0.676 1.589,1.172 0.547,0.572 1.17,0.729 1.951,0.963 0.365,0.131 0.729,0.131 1.068,0.207 0.26,0.131 0.494,0.131 0.857,0.105 0.545,-0.182 1.17,-0.182 1.717,-0.338 0.442,0 0.91,-0.105 1.301,-0.209 0.521,-0.156 0.964,-0.443 1.303,-0.859 1.016,-1.223 2.291,-2.316 2.994,-3.801 0.26,-0.391 0.6,-0.807 0.859,-1.301 0.572,-0.912 1.224,-1.848 1.64,-2.813 0.755,-1.535 1.38,-3.15 1.952,-4.713 0.261,-0.52 0.548,-1.119 0.574,-1.744 0.156,-1.379 1.172,-2.082 1.639,-3.564 0.574,-2.031 1.043,-4.115 1.406,-6.223 0.236,-0.832 0.34,-1.771 0.625,-2.5 0.443,-1.119 0.418,-2.238 -0.207,-3.254 -0.131,-0.182 -0.287,-0.338 -0.521,-0.416 -0.234,-0.053 -0.391,0.078 -0.494,0.572 -0.234,1.197 -0.73,2.213 -1.275,3.332 -0.521,1.016 -0.965,2.109 -1.198,3.227 -0.208,0.887 -0.573,1.643 -0.911,2.527 -1.589,4.008 -3.984,7.055 -6.404,10.674 -0.496,0.756 -0.965,1.457 -1.642,2.107 l -2.603,2.422 c -0.027,0 -0.104,0.027 -0.209,0.027 -0.104,-0.027 -0.287,-0.055 -0.287,-0.158 0,-0.703 -0.051,-1.484 0.026,-2.16 0.156,-1.119 0.261,-2.238 0.261,-3.307 0,-0.729 0.182,-1.484 0.364,-2.135 0.548,-1.875 1.067,-3.723 1.354,-5.598 0.234,-1.379 0.39,-2.68 0.703,-3.93 0.182,-1.119 0.572,-2.135 0.599,-3.281 0.155,-1.301 0.546,-2.551 0.729,-3.904 0.078,-0.416 0.207,-0.912 0.233,-1.275 0.261,-1.379 0.442,-2.762 0.963,-4.113 0.287,-0.547 0.442,-1.223 0.442,-1.848 0,-0.313 0,-0.678 0.078,-0.963 0.574,-1.328 0.703,-2.838 1.459,-4.141 0.104,-0.131 0.129,-0.416 0.104,-0.598 -0.338,-0.496 -0.26,-0.965 -0.104,-1.459 0.129,-0.416 0.26,-0.859 0.26,-1.328 0,-0.598 0.184,-1.119 0.521,-1.639 0.234,-0.471 0.494,-0.859 0.729,-1.328 0.156,-0.209 0.313,-0.471 0.469,-0.471 1.119,-0.232 1.979,-0.963 3.124,-1.145 1.405,-0.156 2.733,-0.467 4.089,-0.859 1.145,-0.338 2.264,-0.52 3.436,-0.963 0.209,-0.051 6.328,-1.615 6.613,-1.666 0,0 1.064,-1.221 -1.146,-1.221 l -4.712,0 c -0.547,0 -0.99,0 -1.459,0.078 -2.107,0.287 -4.139,0.182 -6.223,0.572 -0.703,0.232 -1.432,0.232 -2.135,0.232 -0.572,0.053 -0.885,-0.361 -0.65,-0.883 0.469,-0.938 0.807,-2.029 1.041,-3.123 0.131,-0.469 0.313,-0.99 0.469,-1.406 1.275,-2.316 1.535,-4.764 1.667,-7.314 0,-0.184 -0.052,-0.494 -0.235,-0.6 -0.156,-0.287 -0.416,-0.598 -0.703,-0.754 -1.562,-0.99 -3.228,-0.99 -4.895,-0.234 -0.156,0 -0.391,0.129 -0.547,0.234 -0.676,0.416 -1.016,1.51 -0.469,2.107 0.469,0.625 0.6,1.328 0.392,2.109 -0.47,1.797 -0.86,3.541 -1.511,5.285 -0.469,1.275 -0.885,2.473 -1.197,3.826 -0.025,0.494 -0.208,1.039 -0.34,1.48 -1.041,0.156 -1.795,0.156 -2.785,0.285 -0.756,0.184 -1.402,0 -1.559,0.73 -0.131,0.443 -0.104,0.885 0.156,1.25 0.232,0.572 1.715,1.145 2.105,1.639 0.183,0.287 0.078,0.678 0,1.043 -0.234,0.754 -0.52,1.535 -0.703,2.369 -0.26,1.379 -0.729,2.811 -1.195,4.164 -0.207,0.84 -0.363,1.594 -0.597,2.403 m -18.248,0 c -1.042,3.332 -4.557,14.734 -6.17,22.545 -0.104,0.363 -0.131,0.676 -0.104,1.119 0,0.598 0.338,1.223 0.129,1.951 -0.129,0.549 0,1.25 -0.025,1.928 0,0.338 0,0.703 -0.156,1.041 -0.287,0.703 -0.494,1.275 0,1.9 -0.105,0.91 0.156,1.744 0.313,2.654 0.078,0.34 0,0.678 0,1.016 0,0.338 -0.026,0.678 0.078,0.965 0.233,0.625 0.26,1.275 0.312,1.871 0,0.602 0.261,0.992 0.677,1.408 0.521,0.365 1.146,0.676 1.588,1.172 0.547,0.572 1.172,0.729 1.953,0.963 0.364,0.131 0.729,0.131 1.066,0.207 0.262,0.131 0.496,0.131 0.857,0.105 0.547,-0.182 1.172,-0.182 1.717,-0.338 0.443,0 0.912,-0.105 1.303,-0.209 0.521,-0.156 0.964,-0.443 1.302,-0.859 1.017,-1.223 2.291,-2.316 2.994,-3.801 0.261,-0.391 0.599,-0.807 0.858,-1.301 0.574,-0.912 1.225,-1.848 1.642,-2.813 0.755,-1.535 1.38,-3.15 1.952,-4.713 0.261,-0.52 0.547,-1.119 0.572,-1.744 0.158,-1.379 1.172,-2.082 1.642,-3.564 0.571,-2.031 1.041,-4.115 1.405,-6.223 0.234,-0.832 0.338,-1.771 0.625,-2.5 0.443,-1.119 0.416,-2.238 -0.209,-3.254 -0.129,-0.182 -0.285,-0.338 -0.521,-0.416 -0.233,-0.053 -0.39,0.078 -0.493,0.572 -0.236,1.197 -0.73,2.213 -1.277,3.332 -0.521,1.016 -0.963,2.109 -1.197,3.227 -0.208,0.887 -0.573,1.643 -0.911,2.527 -1.588,4.008 -3.983,7.055 -6.405,10.674 -0.494,0.756 -0.963,1.457 -1.64,2.107 l -2.604,2.422 c -0.025,0 -0.104,0.027 -0.207,0.027 -0.104,-0.027 -0.287,-0.055 -0.287,-0.158 0,-0.703 -0.051,-1.484 0.025,-2.16 0.157,-1.119 0.262,-2.238 0.262,-3.307 0,-0.729 0.182,-1.484 0.363,-2.135 0.547,-1.875 1.068,-3.723 1.354,-5.598 0.236,-1.379 0.392,-2.68 0.703,-3.93 0.183,-1.119 0.574,-2.135 0.6,-3.281 0.156,-1.301 0.547,-2.551 0.729,-3.904 0.078,-0.416 0.209,-0.912 0.234,-1.275 0.262,-1.379 0.443,-2.762 0.965,-4.113 0.285,-0.547 0.441,-1.223 0.441,-1.848 0,-0.313 0,-0.678 0.078,-0.963 0.572,-1.328 0.703,-2.838 1.457,-4.141 0.105,-0.131 0.131,-0.416 0.105,-0.598 -0.339,-0.496 -0.261,-0.965 -0.105,-1.459 0.131,-0.416 0.262,-0.859 0.262,-1.328 0,-0.598 0.182,-1.119 0.521,-1.639 0.233,-0.471 0.494,-0.859 0.729,-1.328 0.156,-0.209 0.313,-0.471 0.468,-0.471 1.12,-0.232 1.979,-0.963 3.125,-1.145 1.406,-0.156 2.733,-0.467 4.087,-0.859 1.146,-0.338 2.266,-0.52 3.438,-0.963 0.207,-0.051 6.326,-1.615 6.613,-1.666 0,0 1.064,-1.221 -1.146,-1.221 l -4.714,0 c -0.547,0 -0.988,0 -1.457,0.078 -2.109,0.287 -4.141,0.182 -6.223,0.572 -0.703,0.232 -1.433,0.232 -2.135,0.232 -0.572,0.053 -0.886,-0.361 -0.65,-0.883 0.468,-0.938 0.807,-2.029 1.041,-3.123 0.129,-0.469 0.312,-0.99 0.469,-1.406 1.275,-2.316 1.535,-4.764 1.666,-7.314 0,-0.184 -0.053,-0.494 -0.234,-0.6 -0.156,-0.287 -0.416,-0.598 -0.703,-0.754 -1.562,-0.99 -3.229,-0.99 -4.895,-0.234 -0.156,0 -0.391,0.129 -0.547,0.234 -0.678,0.416 -1.016,1.51 -0.469,2.107 0.469,0.625 0.599,1.328 0.391,2.109 -0.469,1.797 -0.859,3.541 -1.51,5.285 -0.469,1.275 -0.885,2.473 -1.198,3.826 -0.026,0.494 -0.208,1.039 -0.339,1.48 -1.041,0.156 -1.797,0.156 -2.785,0.285 -0.756,0.184 -1.404,0 -1.559,0.73 -0.131,0.443 -0.104,0.885 0.154,1.25 0.232,0.572 1.717,1.145 2.107,1.639 0.182,0.287 0.078,0.678 0,1.043 -0.234,0.754 -0.521,1.535 -0.703,2.369 -0.262,1.379 -0.729,2.811 -1.197,4.164 -0.209,0.84 -0.363,1.594 -0.597,2.403 m -12.731,13.095 c 0.182,1.094 -0.261,3.098 -1.25,4.113 -1.068,1.406 -2.033,0.885 -2.371,1.094 0.13,-1.773 1.016,-5.521 2.266,-6.979 0.077,-0.027 0.104,-0.156 0.286,-0.234 l 0.574,0 c 0.156,0.078 0.338,0.26 0.365,0.469 0.13,0.34 0.13,0.731 0.13,1.537 m 11.92,-2.941 c 0,0 0.365,-1.639 -0.572,-1.482 -1.325,0.338 -1.664,1.145 -1.664,1.145 l -1.301,2.004 c -3.465,6.273 -6.978,11.324 -11.119,16.4 -0.104,0.156 -0.312,0.363 -0.469,0.389 -0.286,0 -0.573,-0.025 -0.807,-0.232 -0.183,0 -0.209,-0.287 -0.287,-0.496 -0.26,-1.404 -0.052,-2.758 0.104,-4.061 0,-0.496 0.313,-0.832 0.704,-0.963 0.521,-0.209 1.016,-0.313 1.485,-0.494 1.094,-0.313 2.006,-1.041 2.709,-1.979 l 0.963,-1.301 c 0.936,-1.484 0.857,-2.369 1.82,-4.947 0.857,-2.344 1.641,-6.014 -1.77,-8.355 -1.717,-1.275 -3.645,-1.951 -5.807,-1.145 -3.202,1.301 -3.774,2.938 -5.257,5.725 -0.443,0.936 -0.807,1.77 -0.911,2.682 -0.052,0.832 -0.26,1.744 -0.469,2.498 -0.546,2.213 -1.067,4.529 -1.535,6.742 -0.468,2.238 -0.338,4.451 0.182,6.639 0.963,3.645 2.759,4.557 5.751,4.92 0.625,0.104 1.249,0.025 1.874,-0.207 0.391,-0.156 0.807,-0.338 1.172,-0.469 2.371,-0.625 4.115,-2.238 5.546,-4.244 1.326,-1.951 3.436,-3.801 4.479,-5.807 2.241,-4.345 4.269,-8.38 5.179,-12.962 m -47.431,-39.309 c -15.413,14.865 -18.796,43.342 -20.096,43.342 -0.131,0.416 -0.313,0.938 -0.313,1.275 -0.052,0.182 0,0.416 0,0.6 -0.078,1.744 -0.91,3.566 -0.988,5.492 -0.027,1.457 -0.912,2.473 -0.964,3.775 0,0.363 0.13,0.729 0.052,1.016 -0.026,0.859 -0.468,1.457 -0.494,2.264 0,0.262 0,0.494 0.156,0.678 0.677,1.613 0.442,3.514 1.718,4.92 0.833,1.041 2.706,3.436 3.721,3.436 0.806,0 1.405,-1.354 1.405,-2.16 0.026,-0.598 -0.312,-1.404 -0.312,-2.186 0.078,-1.277 1.327,-12.445 0.936,-12.758 0,-0.104 -0.052,-0.156 -0.052,-0.26 0,-0.104 0.104,-0.234 0.104,-0.338 0.859,-5.625 3.072,-9.658 3.411,-12.861 0.026,-0.6 0.417,-1.041 0.521,-1.613 0.234,-1.172 1.015,-1.9 1.275,-3.072 0.209,-1.119 0.235,-2.266 1.276,-2.916 0.365,-0.988 0.807,-1.875 1.042,-2.785 0.156,-1.094 1.223,-1.563 1.353,-2.629 0.261,-1.82 2.24,-2.887 2.63,-4.502 0.677,-1.953 2.161,-3.357 2.812,-5.232 0.651,-1.979 2.63,-2.604 3.254,-4.477 0.573,-1.719 2.083,-2.76 3.411,-3.828 1.953,-1.457 2.812,-1.979 5.233,-2.42 0.026,0 0.104,-0.025 0.208,-0.025 1.042,0 1.354,1.145 1.328,2.186 -0.13,2.082 -1.041,3.643 -1.51,5.414 -0.703,2.787 -2.838,4.895 -4.035,7.654 -1.016,2.344 -3.671,3.541 -4.504,6.168 -0.209,0.754 -0.808,1.379 -1.432,1.77 -1.302,0.729 -2.344,1.641 -3.75,2.135 -1.145,0.363 -2.499,2.107 -2.525,3.539 0,0.234 0,0.496 0.078,0.754 -0.052,0.158 -0.833,1.771 -0.833,3.281 -0.026,0.703 0.625,1.303 0.963,1.641 1.016,0.99 2.031,3.334 3.046,3.334 0.677,0 1.641,-0.965 2.213,-1.771 0.443,-0.494 1.068,-0.676 1.615,-1.172 1.978,-1.771 3.905,-3.357 5.728,-5.313 0.13,-0.18 0.208,-0.336 0.39,-0.439 1.276,-1.068 2.343,-2.344 3.359,-3.594 0.911,-1.145 1.978,-2.238 3.358,-2.576 0.833,-0.209 3.125,-1.068 3.88,-1.068 1.093,0 4.217,0.129 4.139,3.229 -0.156,2.029 -0.833,4.529 -1.926,6.379 -2.396,3.826 -4.609,7.574 -7.316,11.063 -1.927,2.422 -4.062,4.842 -6.093,7.029 -0.651,0.729 -3.983,4.479 -4.816,5.363 -1.094,0.287 -1.849,0.834 -2.786,1.457 -0.234,0.158 -0.391,0.287 -0.677,0.287 -0.365,0 -0.833,-0.547 -0.833,-0.807 0.026,-0.988 -0.703,-1.51 -1.797,-1.51 -1.718,0 -4.139,1.406 -4.296,4.711 -0.052,1.875 1.354,2.969 2.448,4.609 0.573,1.066 1.51,1.639 2.603,2.055 1.615,-0.467 2.786,-0.467 3.828,-1.563 1.9,-1.898 3.853,-3.852 5.675,-5.805 0.807,-0.779 1.354,-1.691 2.161,-2.291 0.521,-0.389 0.833,-0.936 1.198,-1.379 4.504,-5.701 12.107,-12.965 15.618,-25.877 0.26,-0.885 0.364,-1.693 0.39,-2.551 0.182,-5.104 -4.578,-10.566 -8.874,-8.563 1.171,-3.619 2.395,-7.732 2.525,-11.48 0.13,-3.775 -0.807,-7.395 -4.009,-9.918 -2.083,-1.797 -4.374,-2.734 -6.874,-2.734 -3.045,-0.002 -6.639,1.17 -8.956,3.617"
         id="path53"
         inkscape:connector-curvature="0"
         style="fill:#272e3e" /><path
         clip-path="url(#SVGID_10_)"
         d="m 378.524,413.841 c 0.077,-0.417 0.104,-0.677 0.104,-0.937 0,-1.172 -0.313,-1.197 -0.625,-1.197 -0.65,0 -1.379,0.286 -1.744,0.858 -1.041,1.719 -1.719,2.784 -2.916,4.581 -1.406,2.293 -3.565,6.121 -4.217,6.121 -0.677,0 -1.093,-1.146 -1.093,-1.954 0,-0.131 0.078,-0.339 0.078,-0.469 0.78,-4.296 2.056,-8.539 2.914,-12.938 0.235,-0.963 0.235,-2.031 0.235,-3.021 0,-1.144 -2.291,-1.613 -3.565,-1.613 -0.884,0 -1.873,0.886 -1.873,1.928 0,3.018 -4.868,12.626 -5.858,14.344 -1.093,1.692 -2.029,2.917 -2.473,2.917 -0.104,0 -0.26,-0.104 -0.26,-0.313 0,-1.641 0.39,-3.307 0.572,-4.817 0.026,-0.313 0.026,-0.574 0.156,-0.729 0.416,-1.249 0.547,-2.552 0.989,-3.853 0.886,-2.526 1.302,-5.258 2.005,-7.863 0.156,-0.493 0.156,-0.884 0.156,-1.431 0,-1.379 -0.678,-2.369 -2.239,-2.369 -1.171,0 -1.743,1.172 -2.005,2.213 -1.379,5.78 -2.941,10.881 -3.957,17.208 -0.208,1.406 -0.807,3.045 -0.807,4.424 0,1.9 2.76,4.918 4.973,4.918 3.879,0 5.051,-5.619 7.367,-8.536 0.156,0.131 0.156,0.443 0.156,0.494 0.078,0.913 1.172,5.024 1.978,5.258 0.651,0.232 1.405,0.416 2.238,0.416 0.963,0 1.95,-0.262 2.68,-1.119 1.591,-1.848 5.703,-7.523 7.031,-12.521 m -33.682,2.134 c 0.182,1.096 -0.262,3.1 -1.252,4.114 -1.068,1.406 -2.031,0.884 -2.371,1.092 0.131,-1.77 1.017,-5.519 2.268,-6.977 0.078,-0.027 0.104,-0.156 0.285,-0.235 l 0.574,0 c 0.156,0.079 0.338,0.261 0.365,0.469 0.131,0.342 0.131,0.731 0.131,1.537 m 11.92,-2.939 c 0,0 0.363,-1.641 -0.572,-1.485 -1.326,0.339 -1.664,1.147 -1.664,1.147 l -1.303,2.004 c -3.465,6.271 -6.978,11.324 -11.117,16.398 -0.104,0.156 -0.313,0.365 -0.469,0.393 -0.287,0 -0.574,-0.027 -0.809,-0.236 -0.182,0 -0.208,-0.285 -0.285,-0.494 -0.261,-1.404 -0.053,-2.76 0.104,-4.061 0,-0.494 0.313,-0.832 0.703,-0.963 0.521,-0.207 1.017,-0.313 1.486,-0.494 1.094,-0.313 2.006,-1.041 2.707,-1.979 l 0.963,-1.302 c 0.937,-1.483 0.858,-2.369 1.82,-4.946 0.859,-2.345 1.641,-6.014 -1.77,-8.355 -1.715,-1.276 -3.644,-1.951 -5.807,-1.146 -3.201,1.302 -3.773,2.942 -5.257,5.727 -0.442,0.936 -0.806,1.769 -0.909,2.681 -0.054,0.833 -0.262,1.744 -0.47,2.499 -0.546,2.212 -1.067,4.53 -1.535,6.743 -0.469,2.24 -0.339,4.453 0.183,6.639 0.963,3.645 2.758,4.557 5.75,4.92 0.625,0.105 1.25,0.027 1.875,-0.209 0.39,-0.154 0.807,-0.338 1.172,-0.467 2.371,-0.625 4.115,-2.24 5.545,-4.244 1.326,-1.953 3.436,-3.801 4.478,-5.805 2.241,-4.35 4.271,-8.384 5.181,-12.965 m -36.158,-10.157 c -1.041,3.333 -4.555,14.735 -6.17,22.544 -0.104,0.365 -0.129,0.678 -0.104,1.121 0,0.598 0.34,1.223 0.131,1.951 -0.131,0.547 0,1.25 -0.027,1.928 0,0.338 0,0.703 -0.155,1.041 -0.286,0.703 -0.494,1.275 0,1.9 -0.104,0.912 0.155,1.744 0.313,2.656 0.078,0.338 0,0.676 0,1.014 0,0.34 -0.026,0.678 0.078,0.963 0.233,0.625 0.26,1.277 0.312,1.875 0,0.598 0.26,0.99 0.677,1.406 0.521,0.363 1.145,0.676 1.588,1.172 0.547,0.572 1.172,0.729 1.953,0.963 0.363,0.129 0.729,0.129 1.066,0.207 0.261,0.131 0.496,0.131 0.857,0.105 0.545,-0.184 1.17,-0.184 1.717,-0.34 0.443,0 0.912,-0.104 1.303,-0.207 0.521,-0.156 0.963,-0.443 1.302,-0.859 1.015,-1.225 2.291,-2.316 2.993,-3.801 0.261,-0.391 0.6,-0.807 0.859,-1.303 0.573,-0.91 1.225,-1.848 1.641,-2.811 0.756,-1.535 1.38,-3.15 1.953,-4.711 0.261,-0.521 0.547,-1.121 0.572,-1.746 0.156,-1.379 1.172,-2.082 1.641,-3.566 0.572,-2.029 1.041,-4.113 1.406,-6.221 0.234,-0.833 0.338,-1.771 0.625,-2.499 0.442,-1.12 0.416,-2.239 -0.209,-3.254 -0.129,-0.185 -0.287,-0.339 -0.521,-0.417 -0.233,-0.053 -0.39,0.078 -0.495,0.572 -0.234,1.196 -0.729,2.213 -1.275,3.332 -0.521,1.016 -0.963,2.109 -1.197,3.229 -0.209,0.884 -0.573,1.639 -0.911,2.524 -1.589,4.011 -3.983,7.056 -6.405,10.675 -0.494,0.754 -0.964,1.457 -1.641,2.107 l -2.604,2.422 c -0.025,0 -0.104,0.025 -0.209,0.025 -0.104,-0.025 -0.285,-0.051 -0.285,-0.156 0,-0.701 -0.053,-1.482 0.025,-2.16 0.156,-1.119 0.26,-2.238 0.26,-3.307 0,-0.729 0.184,-1.482 0.365,-2.135 0.547,-1.873 1.066,-3.723 1.354,-5.596 0.234,-1.381 0.391,-2.684 0.703,-3.933 0.182,-1.12 0.573,-2.134 0.6,-3.279 0.156,-1.303 0.546,-2.553 0.729,-3.904 0.078,-0.417 0.209,-0.912 0.234,-1.276 0.26,-1.38 0.443,-2.76 0.963,-4.113 0.287,-0.548 0.443,-1.224 0.443,-1.849 0,-0.313 0,-0.677 0.078,-0.963 0.572,-1.328 0.703,-2.838 1.457,-4.14 0.104,-0.13 0.131,-0.417 0.104,-0.6 -0.338,-0.495 -0.261,-0.962 -0.104,-1.458 0.131,-0.416 0.262,-0.858 0.262,-1.328 0,-0.597 0.182,-1.118 0.52,-1.639 0.235,-0.468 0.495,-0.86 0.729,-1.327 0.158,-0.209 0.314,-0.469 0.47,-0.469 1.12,-0.235 1.979,-0.963 3.124,-1.146 1.406,-0.156 2.734,-0.469 4.088,-0.858 1.146,-0.339 2.266,-0.522 3.438,-0.964 0.207,-0.053 6.326,-1.614 6.613,-1.666 0,0 1.063,-1.221 -1.146,-1.221 l -4.714,0 c -0.547,0 -0.988,0 -1.457,0.077 -2.109,0.286 -4.141,0.182 -6.223,0.572 -0.703,0.233 -1.433,0.233 -2.136,0.233 -0.573,0.053 -0.885,-0.363 -0.651,-0.883 0.469,-0.937 0.808,-2.03 1.043,-3.124 0.129,-0.47 0.312,-0.988 0.467,-1.405 1.277,-2.317 1.537,-4.766 1.668,-7.315 0,-0.183 -0.053,-0.496 -0.235,-0.599 -0.155,-0.286 -0.416,-0.601 -0.702,-0.755 -1.563,-0.989 -3.229,-0.989 -4.895,-0.234 -0.157,0 -0.391,0.13 -0.547,0.234 -0.678,0.416 -1.016,1.51 -0.469,2.107 0.469,0.624 0.598,1.328 0.391,2.109 -0.469,1.797 -0.86,3.541 -1.51,5.285 -0.469,1.274 -0.887,2.473 -1.199,3.826 -0.025,0.492 -0.207,1.038 -0.338,1.481 -1.041,0.156 -1.797,0.156 -2.787,0.286 -0.754,0.181 -1.402,0 -1.559,0.729 -0.129,0.443 -0.104,0.886 0.156,1.25 0.232,0.572 1.717,1.146 2.105,1.641 0.184,0.286 0.08,0.677 0,1.041 -0.233,0.755 -0.52,1.536 -0.703,2.369 -0.26,1.38 -0.729,2.812 -1.195,4.164 -0.208,0.839 -0.364,1.595 -0.598,2.401 m -36.081,12.551 c 0,0 1.327,2.106 2.811,-0.598 0.755,-1.458 1.614,-3.384 2.109,-4.947 0.104,-0.338 0.339,-0.598 0.625,-0.912 0.13,-0.155 -0.078,-0.624 0.13,-0.755 l 0.156,0 c 0.078,0 0.182,0.131 0.182,0.158 0,1.744 -0.182,3.513 -0.676,5.179 -0.209,0.833 -0.443,1.615 -0.573,2.368 -0.156,1.535 -0.599,2.889 -1.068,4.347 -0.208,0.546 -0.364,1.224 -0.494,1.849 -0.104,0.363 -0.182,0.807 -0.182,1.145 0.078,0.703 -0.131,1.406 -0.703,1.979 -0.287,0.418 -0.599,0.834 -0.599,1.354 -0.026,0.652 -0.026,1.354 -0.338,1.979 -0.261,0.6 -0.235,1.25 -0.521,1.875 -0.313,0.547 -0.547,1.172 -0.469,1.875 0,0.182 -0.156,0.441 -0.338,0.547 -0.339,0.389 -0.547,0.859 -0.469,1.406 0.026,0.207 -0.078,0.467 -0.234,0.598 -0.521,0.572 -0.781,1.379 -0.937,2.16 l -0.573,1.928 c -0.286,0.832 -0.469,1.666 -0.234,2.551 0.104,0.441 0.13,0.91 0.156,1.301 l 0,1.381 c 0.573,0.703 1.067,1.379 1.588,2.135 0.312,0.494 0.729,0.676 1.302,0.729 l 0.364,0.182 c 0.104,0.131 0.104,0.287 0.13,0.443 0.182,0.363 0.313,0.469 0.651,0.313 l 0.573,-0.313 c 0.312,0.494 0.312,0.494 0.755,0.363 l 1.51,-0.338 c 0.651,-1.613 1.197,-3.332 1.379,-5.102 0.235,-2.109 0.885,-4.141 1.275,-6.248 0.13,-0.678 0.39,-1.406 0.624,-2.082 0.182,-0.365 0.338,-0.73 0.338,-1.068 0.261,-1.484 0.625,-2.891 1.093,-4.27 0.416,-1.432 0.754,-2.863 1.327,-4.219 1.016,-2.576 1.954,-5.049 3.152,-7.522 0.26,-0.548 0.521,-1.146 0.963,-1.482 0.652,-0.703 1.277,-1.379 1.666,-2.291 0.209,-0.337 0.47,-0.625 0.729,-0.858 0.104,-0.104 0.287,-0.155 0.365,-0.155 0.183,0 0.339,0.025 0.339,0.155 0.208,0.6 0.078,1.303 0,1.953 -0.495,3.146 -0.964,6.243 -1.225,9.394 -0.025,0.521 -0.209,1.094 -0.26,1.51 -0.313,2.084 -0.963,4.035 -1.381,6.041 -0.365,1.406 -0.677,2.838 -1.068,4.295 -0.26,0.938 0,1.771 0.625,2.475 0.496,0.598 1.043,1.223 1.486,1.873 0.598,0.988 1.588,1.51 2.473,2.16 0.104,0.184 0.39,0.184 0.572,0.184 0.233,0 0.469,-0.078 0.703,0 0.961,0.494 2.002,0.156 2.965,0 0.26,0 0.598,-0.209 0.756,-0.443 0.832,-1.301 1.588,-2.578 2.265,-3.982 0.338,-0.6 0.338,-1.328 0.808,-1.85 0.467,-0.572 0.207,-1.404 0.545,-2.107 0.156,-0.494 0.262,-0.963 0.625,-1.406 0.26,-0.338 0.365,-0.729 0.469,-1.197 0.131,-0.313 0.313,-0.547 0.469,-0.703 0.209,-0.313 0.182,-0.521 0.078,-0.834 -0.286,-0.65 -0.182,-1.25 0.234,-1.953 0.156,-0.207 0.364,-0.467 0.547,-0.623 0.391,-0.287 0.625,-0.625 0.676,-1.119 0,-0.209 0.078,-0.469 0.234,-0.547 0.496,-0.443 0.703,-1.172 1.094,-1.668 0.99,-1.301 2.396,-5.986 2.552,-7.367 0.052,-0.363 0.077,-0.728 0.208,-1.064 0.313,-0.703 0.234,-1.406 0.078,-2.161 -0.104,-0.337 -0.286,-0.676 -0.442,-1.014 -0.026,-0.183 -0.155,-0.444 -0.338,-0.522 -0.157,0 -0.339,0.208 -0.392,0.393 -0.703,1.273 -1.379,2.629 -2.082,3.876 -0.834,1.223 -2.941,6.325 -3.879,7.471 l -0.442,0.494 c -0.208,0.313 -0.339,0.65 -0.495,0.99 -0.703,1.482 -3.827,5.855 -6.271,7.027 -0.131,0.027 -0.26,-0.051 -0.26,-0.154 -0.131,-0.158 -0.209,-0.262 -0.209,-0.471 0.234,-2.498 0.234,-5.154 0.572,-7.652 0.182,-1.406 0.363,-2.786 0.572,-4.166 l 0.728,-3.255 c 0.417,-2.157 0.677,-4.346 0.417,-6.608 -0.104,-0.912 -0.521,-1.616 -1.197,-2.213 -0.754,-0.47 -1.457,-0.73 -2.263,-0.73 -0.364,0 -0.78,0.078 -1.041,0.261 -0.677,0.34 -1.327,0.703 -1.797,1.303 -0.782,0.858 -1.745,1.639 -2.24,2.707 -1.224,1.302 -2.084,2.811 -2.891,4.503 l -0.443,0.467 c 0,0.026 -0.13,0 -0.156,-0.079 -0.104,0 -0.182,0 -0.182,-0.078 -0.104,-1.116 -0.13,-2.366 0.052,-3.511 0.286,-2.135 0.26,-4.245 0.13,-6.378 -0.052,-0.677 -0.286,-1.25 -0.52,-1.927 -0.39,-0.755 -0.988,-1.197 -1.821,-1.406 -1.352,-0.39 -2.576,0.052 -3.097,1.301 -0.494,1.277 -1.223,2.421 -1.536,3.724 -0.208,0.886 -0.598,1.641 -0.911,2.474 l -1.978,5.172 z m -10.206,-7.808 0.078,0.025 -0.13,0 c 0.026,0 0.026,0 0.052,-0.025 m 0.078,0.703 c 0,1.144 -0.469,2.629 -0.781,3.904 0.13,2.682 2.082,3.279 3.462,3.67 -0.13,0.703 -0.677,1.433 -0.937,1.928 -0.286,0.519 -0.417,1.041 -0.677,1.588 -0.573,1.066 -1.145,2.082 -1.744,3.097 -0.573,1.016 -0.885,2.004 -1.406,3.021 l -2.342,3.982 c -0.235,0.416 -0.703,1.066 -1.146,1.066 -1.483,0 -1.639,-3.357 -1.639,-4.711 0,-1.537 0.572,-2.943 0.572,-4.375 l 0,-0.26 c -0.026,-0.625 0.156,-1.146 0.339,-1.771 0.104,-0.599 0.494,-1.042 0.572,-1.64 0.078,-1.225 1.198,-2.318 1.458,-3.619 0.182,-1.041 0.677,-1.926 1.249,-2.785 0.963,-1.224 1.406,-2.89 2.864,-3.723 0.078,0.184 0.156,0.341 0.156,0.628 m -12.312,20.38 c 0.26,0 1.509,3.385 1.978,4.035 1.145,1.537 3.358,2.863 4.998,2.863 1.067,0 3.253,-0.65 4.347,-1.691 1.275,-1.248 1.978,-3.121 2.525,-4.762 0.416,-1.197 1.145,-2.238 1.223,-3.488 0.052,-0.494 0.286,-0.832 0.469,-1.275 1.067,-1.588 1.405,-3.566 1.926,-5.417 l 1.119,-4.06 c 0.521,-1.874 0.547,-1.874 1.848,-3.438 1.953,-2.394 4.66,-4.659 4.66,-7.809 0,-0.365 -0.104,-0.86 -0.599,-0.86 -0.104,0 -0.963,0.546 -1.041,0.624 l -4.79,4.558 c 0.052,-1.017 -0.078,-1.614 -0.078,-2.422 0,-1.171 -0.442,-1.562 -1.093,-2.707 -0.495,-1.275 -2.837,-2.136 -4.347,-2.136 -1.978,0 -4.061,0.833 -5.154,2.475 -0.182,0.232 -0.286,0.494 -0.443,0.702 -7.002,9.972 -6.794,12.496 -7.496,14.605 -0.313,1.092 -0.677,2.082 -0.677,3.124 0,0.364 0.13,0.833 0.13,1.3 0,0.496 -0.156,0.965 -0.442,1.406 l 0.937,4.373 z m -51.78,-35.509 c 0,0 0.364,2.681 2.239,2.681 2.89,0 2.864,-2.16 2.864,-2.16 1.249,-2.578 3.28,-9.525 6.768,-12.441 0.156,-0.053 0.417,-0.13 0.755,-0.155 0.026,0.26 0.182,0.598 0.182,0.911 l 0,0.182 c -2.108,5.257 -4.764,18.428 -6.768,24.259 -1.979,5.831 -5.103,14.033 -7.238,19.421 -0.885,2.057 -1.353,3.488 -1.353,4.688 0,2.447 1.796,3.617 5.05,5.934 1.015,0.703 1.588,1.25 2.369,1.25 0.703,0 1.172,-0.441 1.562,-1.379 0.781,-1.953 1.302,-4.061 2.109,-6.066 1.614,-4.164 3.124,-8.356 4.92,-12.47 3.93,-8.929 7.208,-16.14 13.977,-23.143 0,0.806 0.026,1.483 0.026,2.083 0,0.338 0,0.676 -0.052,0.963 -0.885,2.994 -0.677,3.54 -1.614,6.456 -0.885,2.759 -2.317,4.452 -3.254,7.133 -0.547,1.823 -1.744,4.816 -2.499,6.508 -2.29,4.634 -3.929,8.853 -5.334,13.876 -0.156,0.6 -0.261,1.146 -0.261,1.641 0,1.379 0.521,2.473 1.796,3.385 1.249,1.014 2.602,1.951 3.383,1.951 0.832,0 1.405,-0.676 1.977,-2.055 0.833,-2.369 1.953,-4.66 2.708,-7.135 1.588,-4.504 3.254,-8.929 5.701,-13.069 2.005,-3.516 4.634,-6.718 6.456,-10.361 2.552,-4.868 6.066,-8.799 10.101,-12.417 0.495,-0.469 1.094,-0.755 2.369,-1.563 -0.494,1.743 -0.677,2.784 -1.015,3.774 -4.113,10.96 -15.099,23.248 -15.099,35.458 0,1.068 0.104,2.057 0.234,3.15 0.26,1.691 3.15,2.76 3.697,2.76 1.692,0 6.222,-3.229 8.565,-4.791 6.404,-7.445 11.793,-17.676 11.793,-20.567 0,-0.546 -0.182,-0.833 -0.521,-0.833 -1.145,0 -2.004,0.365 -2.707,1.588 -1.64,3.202 -5.051,8.122 -6.821,11.222 -0.208,0.338 -0.573,0.572 -0.911,0.857 -1.823,1.434 -3.697,2.891 -5.597,4.244 -0.495,0.391 -1.198,0.391 -2.265,0.73 1.77,-3.672 2.213,-7.238 4.503,-10.103 0.417,-0.598 0.808,-1.223 1.12,-1.875 l 6.795,-14.292 c 1.51,-3.357 2.915,-6.768 2.915,-10.413 0,-2.628 -0.26,-6.739 -4.451,-6.739 -1.25,0 -2.317,0.521 -3.359,1.484 -4.816,4.345 -9.241,9.031 -13.381,14.446 -0.104,-0.339 -0.234,-0.755 -0.104,-0.99 2.395,-6.743 4.582,-11.479 4.582,-17.881 0,-2.188 -1.119,-3.411 -4.296,-3.411 -5.649,0 -17.387,23.948 -18.22,23.948 -0.052,0 -0.052,-0.053 -0.052,-0.131 0,-1.327 2.941,-9.528 3.513,-12.026 1.041,-4.788 1.9,-9.63 2.862,-14.42 0.235,-1.093 0.443,-2.266 0.443,-3.332 0,-2.657 -2.706,-4.063 -5.256,-4.063 -2.134,0 -9.163,3.904 -12.496,12.133 -1.796,4.346 -2.993,6.585 -3.41,11.165"
         id="path55"
         inkscape:connector-curvature="0"
         style="fill:#272e3e" /><path
         clip-path="url(#SVGID_10_)"
         d="m 403,399.261 c -15,-3 -14,5 -24,34 2,-12.481 5.061,-20.446 3.027,-31.412 C 380.511,405.076 376,416.26 373,421.26"
         id="path57"
         inkscape:connector-curvature="0"
         style="fill:none;stroke:#272e3e;stroke-width:4;stroke-linecap:round;stroke-linejoin:round" /><path
         clip-path="url(#SVGID_10_)"
         d="m 396,400.261 c -1,0 -5.861,5.015 -6,6 -0.124,0.883 0.229,2.992 -1.029,3.229 -0.736,1.044 -0.557,2.227 -1.047,3.233 -0.127,0.262 -0.724,0.638 -0.773,0.786 -0.172,0.527 0.004,0.947 -0.105,1.429 -0.189,0.837 -0.594,1.451 -1.018,2.24 -0.532,0.987 -0.633,2.226 -1.051,3.237 -0.442,1.076 -0.771,1.291 -0.978,2.473 -0.226,1.295 -0.828,2.301 -1.12,3.516 -0.031,0.133 0.254,0.459 0.217,0.707 -0.074,0.479 -0.479,1.225 -0.707,1.65 -0.652,1.221 -1.18,2.045 -1.389,3.5"
         id="path59"
         inkscape:connector-curvature="0"
         style="fill:none;stroke:#272e3e" /><path
         clip-path="url(#SVGID_10_)"
         d="m 404,399.261 c 0.786,1.571 2.419,2.176 -2,1.52"
         id="path61"
         inkscape:connector-curvature="0"
         style="fill:none;stroke:#272e3e;stroke-linecap:round" /></g></g></svg>