<?xml version="1.0" encoding="UTF-8" standalone="no"?>
<!-- Generator: Adobe Illustrator 16.0.3, SVG Export Plug-In . SVG Version: 6.00 Build 0)  -->

<svg
   xmlns:dc="http://purl.org/dc/elements/1.1/"
   xmlns:cc="http://creativecommons.org/ns#"
   xmlns:rdf="http://www.w3.org/1999/02/22-rdf-syntax-ns#"
   xmlns:svg="http://www.w3.org/2000/svg"
   xmlns="http://www.w3.org/2000/svg"
   xmlns:xlink="http://www.w3.org/1999/xlink"
   xmlns:sodipodi="http://sodipodi.sourceforge.net/DTD/sodipodi-0.dtd"
   xmlns:inkscape="http://www.inkscape.org/namespaces/inkscape"
   version="1.1"
   id="Ebene_1"
   x="0px"
   y="0px"
   width="277.30099"
   height="240.14799"
   viewBox="0 0 277.30098 240.14799"
   enable-background="new 0 0 595.28 841.89"
   xml:space="preserve"
   inkscape:version="0.91 r13725"
   sodipodi:docname="McSleepy_Logo.svg"><metadata
     id="metadata69"><rdf:RDF><cc:Work
         rdf:about=""><dc:format>image/svg+xml</dc:format><dc:type
           rdf:resource="http://purl.org/dc/dcmitype/StillImage" /><dc:title></dc:title></cc:Work></rdf:RDF></metadata><defs
     id="defs67" /><sodipodi:namedview
     pagecolor="#ffffff"
     bordercolor="#666666"
     borderopacity="1"
     objecttolerance="10"
     gridtolerance="10"
     guidetolerance="10"
     inkscape:pageopacity="0"
     inkscape:pageshadow="2"
     inkscape:window-width="701"
     inkscape:window-height="480"
     id="namedview65"
     showgrid="false"
     showborder="false"
     fit-margin-top="0"
     fit-margin-left="0"
     fit-margin-right="0"
     fit-margin-bottom="0"
     inkscape:zoom="0.28032165"
     inkscape:cx="145.19301"
     inkscape:cy="143.84249"
     inkscape:window-x="0"
     inkscape:window-y="0"
     inkscape:window-maximized="0"
     inkscape:current-layer="Ebene_1" /><g
     id="g3"
     transform="translate(-152.44701,-324.6395)"><defs
       id="defs5"><rect
         id="SVGID_1_"
         x="152.44701"
         y="324.638"
         width="277.30099"
         height="240.14999" /></defs><clipPath
       id="SVGID_2_"><use
         xlink:href="#SVGID_1_"
         overflow="visible"
         id="use9"
         style="overflow:visible"
         x="0"
         y="0"
         width="100%"
         height="100%" /></clipPath><g
       clip-path="url(#SVGID_2_)"
       id="g11"><defs
         id="defs13"><rect
           id="SVGID_3_"
           x="152.44701"
           y="324.638"
           width="277.30099"
           height="240.14999" /></defs><clipPath
         id="SVGID_4_"><use
           xlink:href="#SVGID_3_"
           overflow="visible"
           id="use17"
           style="overflow:visible"
           x="0"
           y="0"
           width="100%"
           height="100%" /></clipPath><g
         clip-path="url(#SVGID_4_)"
         id="g19"
         style="opacity:0.73000004"><g
           id="g21"><defs
             id="defs23"><rect
               id="SVGID_5_"
               x="144.856"
               y="317.89099"
               width="292.48099"
               height="247.741" /></defs><clipPath
             id="SVGID_6_"><use
               xlink:href="#SVGID_5_"
               overflow="visible"
               id="use27"
               style="overflow:visible"
               x="0"
               y="0"
               width="100%"
               height="100%" /></clipPath><polygon
             clip-path="url(#SVGID_6_)"
             points="222.99,562.679 359.205,562.679 427.313,444.714 359.205,326.748 222.99,326.748 154.881,444.714 "
             id="polygon29"
             style="fill:#262d3e" /><polygon
             clip-path="url(#SVGID_6_)"
             points="222.99,562.679 359.205,562.679 427.313,444.714 359.205,326.748 222.99,326.748 154.881,444.714 "
             id="polygon31"
             style="fill:none;stroke:#3e3e40;stroke-width:4.21700001" /></g></g></g><polygon
       clip-path="url(#SVGID_2_)"
       points="228.018,556.672 357.576,556.672 422.355,444.471 357.576,332.269 228.018,332.269 163.239,444.471 "
       id="polygon33"
       style="fill:#cd5c17" /><g
       clip-path="url(#SVGID_2_)"
       id="g35"><path
         d="m 217.799,363.112 c 3.447,-8.51 10.719,-12.55 12.927,-12.55 2.64,0 5.44,1.454 5.44,4.201 0,1.104 -0.215,2.316 -0.458,3.447 -0.997,4.956 -1.885,9.965 -2.962,14.92 -0.592,2.585 -3.636,11.069 -3.636,12.442 0,0.081 0,0.135 0.054,0.135 0.862,0 13.008,-24.777 18.853,-24.777 3.286,0 4.443,1.266 4.443,3.528 0,6.625 -2.262,11.527 -4.74,18.502 -0.135,0.242 0,0.673 0.108,1.023 4.282,-5.602 8.86,-10.45 13.843,-14.947 1.077,-0.997 2.181,-1.535 3.474,-1.535 4.336,0 4.605,4.255 4.605,6.975 0,3.771 -1.455,7.299 -3.017,10.773 l -7.029,14.786 c -0.323,0.673 -0.727,1.319 -1.158,1.939 -2.37,2.962 -2.828,6.652 -4.659,10.45 1.104,-0.35 1.831,-0.35 2.343,-0.754 1.966,-1.4 3.905,-2.909 5.791,-4.39 0.35,-0.296 0.727,-0.539 0.942,-0.889 1.832,-3.205 5.359,-8.295 7.056,-11.608 0.727,-1.266 1.616,-1.643 2.801,-1.643 0.351,0 0.539,0.296 0.539,0.862 0,2.989 -5.575,13.573 -12.2,21.276 -2.424,1.616 -7.11,4.956 -8.861,4.956 -0.565,0 -3.555,-1.104 -3.824,-2.855 -0.135,-1.131 -0.242,-2.154 -0.242,-3.259 0,-12.631 11.365,-25.343 15.62,-36.681 0.35,-1.023 0.539,-2.101 1.051,-3.905 -1.32,0.835 -1.939,1.131 -2.451,1.616 -4.174,3.744 -7.81,7.811 -10.449,12.847 -1.885,3.771 -4.605,7.083 -6.679,10.719 -2.532,4.282 -4.255,8.86 -5.898,13.52 -0.781,2.559 -1.939,4.929 -2.801,7.379 -0.592,1.428 -1.185,2.128 -2.046,2.128 -0.808,0 -2.208,-0.97 -3.501,-2.02 -1.319,-0.943 -1.858,-2.074 -1.858,-3.501 0,-0.512 0.107,-1.078 0.269,-1.697 1.455,-5.198 3.151,-9.561 5.521,-14.355 0.781,-1.75 2.02,-4.848 2.585,-6.733 0.97,-2.774 2.451,-4.524 3.367,-7.379 0.969,-3.017 0.754,-3.582 1.669,-6.679 0.054,-0.296 0.054,-0.646 0.054,-0.997 0,-0.62 -0.027,-1.32 -0.027,-2.154 -7.002,7.245 -10.396,14.705 -14.462,23.942 -1.858,4.255 -3.42,8.591 -5.09,12.9 -0.835,2.074 -1.374,4.255 -2.182,6.275 -0.404,0.969 -0.889,1.427 -1.616,1.427 -0.808,0 -1.4,-0.565 -2.451,-1.293 -3.367,-2.396 -5.225,-3.608 -5.225,-6.14 0,-1.239 0.484,-2.72 1.4,-4.848 2.208,-5.575 5.44,-14.059 7.487,-20.091 2.074,-6.033 4.821,-19.66 7.002,-25.1 l 0,-0.189 c 0,-0.323 -0.162,-0.673 -0.188,-0.942 -0.35,0.027 -0.62,0.108 -0.781,0.162 -3.609,3.016 -5.709,10.207 -7.002,12.874 0,0 0.027,2.235 -2.962,2.235 -1.939,0 -2.316,-2.774 -2.316,-2.774 0.43,-4.74 1.669,-7.056 3.527,-11.554 z"
         id="path37"
         inkscape:connector-curvature="0"
         style="fill:#262d3d" /><path
         d="m 268.759,399.847 c 0,-0.539 0.027,-0.97 0.215,-1.455 0.997,-2.774 1.589,-5.575 2.855,-8.268 l 0.808,-1.966 c 0.242,-0.727 0.512,-1.562 0.996,-2.397 1.293,-2.208 7.864,-9.345 10.288,-9.184 1.75,0.162 3.124,1.212 4.552,1.966 0.7,0.404 1.185,0.97 1.562,1.643 l 1.346,3.286 c 0.458,0.916 0.673,1.804 0.62,2.774 l -0.108,3.582 c 0,0.135 -0.242,0.377 -0.377,0.377 -0.7,0 -1.239,-0.323 -1.966,-0.216 -0.377,0.108 -0.808,-0.162 -1.05,-0.484 -1.078,-1.078 -2.208,-2.208 -2.936,-3.636 -0.081,-0.135 -0.62,-0.216 -0.808,-0.027 -0.108,0.054 -0.242,0.162 -0.404,0.35 -0.62,0.728 -3.097,3.555 -3.34,4.013 -0.727,1.239 -1.4,2.531 -1.939,3.878 -0.27,0.862 -1.212,6.41 -1.212,7.487 0,0.592 -0.162,0.996 -0.242,1.454 -0.054,0.835 -0.189,1.589 -0.189,2.397 0,4.767 -0.35,6.113 0.701,8.618 0,0.081 0.081,0.215 0.188,0.215 l 1.131,0.97 c 0.485,0.35 1.158,0.35 1.697,0.162 3.689,-1.347 13.897,-17.479 15.109,-19.364 0.539,-1.077 0.404,-0.754 1.158,-1.616 0.135,-0.081 0.485,-0.135 0.512,-0.054 0.35,0.431 0.7,0.889 1.023,1.427 0.216,0.458 0.162,0.97 0,1.427 -0.942,1.455 -10.369,18.421 -11.823,19.58 -1.212,0.969 -2.478,1.832 -3.69,2.882 -0.916,0.916 -2.154,1.266 -3.528,1.158 -0.512,-0.054 -1.131,-0.134 -1.777,-0.242 -0.62,-0.162 -1.239,-0.377 -1.939,-0.539 -1.643,-0.215 -2.962,-0.835 -4.174,-1.885 -0.592,-0.485 -1.185,-0.997 -1.589,-1.75 -0.431,-0.7 -0.943,-1.428 -1.455,-2.155 -0.188,-0.215 -0.646,-0.242 -0.808,-8.322 -0.053,-1.993 0.54,-4.012 0.593,-6.086 z"
         id="path39"
         inkscape:connector-curvature="0"
         style="fill:#262d3d" /></g><g
       clip-path="url(#SVGID_2_)"
       id="g41"><path
         d="m 250.482,440.42 c 1.077,-3.785 2.43,-7.414 4.645,-10.49 1.108,-1.478 2.153,-2.954 3.845,-3.906 0.616,-0.432 1.107,-0.985 1.815,-1.446 0.892,-0.646 1.907,-1.231 2.923,-1.814 1.969,-1.047 4.306,-0.954 6.644,0.152 1.077,0.462 2.092,0.893 3.015,1.385 0.553,0.185 1.046,0.585 1.538,0.984 0.462,0.277 0.523,0.8 0.677,1.2 0.984,2.398 -0.554,7.629 -1.692,8.767 l -1.907,-0.738 c -1.23,-1.938 -0.646,-2.892 -0.154,-3.723 l 0.615,-1.938 0,-0.553 c -0.185,-0.278 -0.185,-0.431 -0.338,-0.678 l -2.061,-2.122 c -0.277,-0.339 -0.892,-0.492 -1.354,-0.339 -1.63,0.862 -3.199,1.754 -4.307,3.169 -0.554,0.769 -1.046,1.63 -1.2,2.583 -0.185,1.847 -0.492,3.507 -0.892,5.292 -0.215,1.076 -1.015,1.877 -0.8,3.138 -2.861,13.442 -2.492,19.041 -4.03,20.765 -0.092,0.338 -0.215,0.553 -0.246,0.829 0.031,1.754 -0.8,2.893 -1.692,4.277 -0.246,0.399 -0.246,1.106 -0.492,1.659 -1.107,2.585 -1.876,5.478 -2.799,8.214 -0.123,0.708 -0.4,1.292 -0.677,1.939 l -0.523,0.798 c 5.937,-2.397 10.644,-4.336 11.751,-4.583 0.092,0 0.277,0.063 0.369,0.123 0,0.093 0.031,0.124 0.031,0.215 -0.246,1.017 -0.892,1.815 -1.507,2.4 -1.969,1.63 -6.613,4.091 -12.089,6.613 -0.277,0.924 -0.369,1.785 -0.523,2.646 -0.092,0.491 0,0.891 -0.215,1.229 -1.723,3.323 -2.553,7.198 -4.368,10.644 -1.784,3.599 -3.968,6.86 -6.429,10.09 -0.8,0.893 -1.938,1.723 -2.892,2.708 -0.831,0.583 -1.938,0.983 -2.522,1.814 -0.062,0.123 -0.124,0.153 -0.277,0.216 -2.061,0.707 -2.799,1.444 -4.983,2.091 -0.646,0.062 -1.384,0.031 -2.892,0.154 -0.707,0.122 -2.03,-0.154 -3.476,-0.801 -2.123,-1.261 -6.645,-2.245 -7.844,-4.799 -1.077,-2.061 -2.092,-4.091 -2.615,-6.244 -0.123,-0.555 -0.123,-0.985 0.123,-1.445 1.23,-2.615 2.769,-4.769 5.167,-6.43 1.753,-1.23 3.384,-2.553 5.168,-3.63 1.322,-0.677 8.736,-3.969 17.042,-7.568 l 0.493,-0.983 c 0.984,-2.368 1.445,-4.86 1.969,-7.29 l 0.83,-3.476 9.136,-31.098 z m -30.361,58.723 c -1.23,2.062 -2.03,4.307 -2.83,6.582 -0.247,0.616 0.892,1.97 1.538,2.031 1.538,0.092 1.168,0.247 2.337,-0.339 1.416,-0.799 2.769,-1.537 3.722,-2.737 2.215,-2.676 3.292,-4.83 5.415,-7.506 1.23,-1.6 2.46,-3.262 3.445,-4.86 0.738,-1.046 1.384,-2.246 1.969,-3.322 -7.628,3.537 -14.15,6.891 -14.796,8.951 l -0.8,1.2 z"
         id="path43"
         inkscape:connector-curvature="0"
         style="fill:#262d3d" /><path
         d="m 288.509,474.103 c -0.37,2.461 -15.874,31.008 -17.412,33.1 -1.876,1.754 -5.537,4.922 -10.736,4.922 -1.477,0 -2.092,-0.399 -2.214,-1.631 l -0.062,0 c -0.123,0 -0.215,-0.399 -0.215,-1.169 0,-5.567 3.077,-29.869 10.152,-51.187 0.307,-0.861 0.554,-1.753 0.707,-2.614 1.323,-6.798 3.969,-8.86 5.968,-15.504 l 2.769,-3.106 c 0.431,-0.431 0.954,-0.831 1.63,-0.831 1.815,0 3.538,-0.03 5.415,-0.03 1.23,0 3.198,1.076 3.198,2.214 0,4.43 0.186,5.261 -1.076,9.351 -0.062,0.309 -0.03,0.739 -0.245,1.047 -1.97,3.384 -2.37,7.321 -3.754,10.858 -0.861,2.093 -1.661,4.03 -3.045,5.783 -1.077,1.385 -2.338,2.646 -3.107,4.307 -0.369,0.646 -0.923,1.323 -1.077,2.03 -0.431,1.938 -2.307,2.616 -2.615,4.554 -0.154,1.414 -0.892,2.553 -1.692,3.752 -1.938,3.015 -1.477,4.338 -3.322,7.352 -0.923,1.539 -1.354,3.415 -1.662,5.199 -0.676,3.322 -1.661,4.83 -2.276,8.213 -0.185,1.139 -0.431,2.308 -0.431,3.384 0,0.585 -0.031,1.23 0.431,1.23 0.092,0 0.4,-0.061 0.4,-0.091 l 0.092,0 c 2.769,0 21.318,-30.731 22.272,-31.931 0.184,-0.308 0.523,-0.555 0.799,-0.924 l 1.108,1.722 z m -4.676,-32.024 c -0.124,-0.215 -0.769,-0.215 -1.2,-0.215 -1.015,0 -2,0.215 -2.245,0.831 -2.338,5.045 -8.552,25.225 -10.859,31.162 4.061,-5.106 8.091,-10.981 10.951,-18.642 1.814,-3.999 3.199,-12.981 3.353,-13.136 z"
         id="path45"
         inkscape:connector-curvature="0"
         style="fill:#262d3d" /><path
         d="m 305.063,489.36 c -1.231,2.369 -3.723,4.552 -5.292,6.86 -1.691,2.368 -3.752,4.275 -6.552,5.014 -0.431,0.153 -0.924,0.37 -1.384,0.553 -0.738,0.278 -1.477,0.37 -2.215,0.248 -3.538,-0.431 -5.661,-1.508 -6.799,-5.814 -0.616,-2.584 -0.769,-5.199 -0.216,-7.845 0.554,-2.614 1.169,-5.353 1.815,-7.967 0.246,-0.893 0.492,-1.969 0.553,-2.953 0.124,-1.077 0.555,-2.062 1.078,-3.168 1.752,-3.292 2.43,-5.229 6.213,-6.769 2.553,-0.953 4.83,-0.153 6.86,1.354 4.03,2.769 3.106,7.106 2.093,9.875 -1.139,3.045 -1.047,4.091 -2.155,5.845 l -1.137,1.537 c -0.831,1.109 -1.907,1.97 -3.199,2.338 -0.556,0.216 -1.14,0.34 -1.755,0.586 -0.461,0.152 -0.829,0.553 -0.829,1.138 -0.186,1.538 -0.431,3.138 -0.125,4.799 0.093,0.246 0.125,0.584 0.34,0.584 0.275,0.246 0.614,0.276 0.954,0.276 0.183,-0.03 0.431,-0.276 0.554,-0.461 4.89,-5.998 9.044,-11.966 13.135,-19.38 l 1.537,-2.368 c 0,0 0.4,-0.953 1.97,-1.354 1.106,-0.185 0.676,1.754 0.676,1.754 -1.076,5.413 -3.474,10.181 -6.12,15.318 z m -8.123,-13.658 c -0.029,-0.246 -0.245,-0.461 -0.43,-0.554 l -0.677,0 c -0.215,0.093 -0.245,0.246 -0.338,0.278 -1.477,1.722 -2.523,6.151 -2.677,8.243 0.4,-0.246 1.538,0.369 2.8,-1.292 1.169,-1.199 1.692,-3.568 1.477,-4.861 10e-4,-0.953 10e-4,-1.413 -0.155,-1.814 z"
         id="path47"
         inkscape:connector-curvature="0"
         style="fill:#262d3d" /><path
         d="m 327.184,489.36 c -1.229,2.369 -3.723,4.552 -5.29,6.86 -1.691,2.368 -3.754,4.275 -6.553,5.014 -0.431,0.153 -0.924,0.37 -1.384,0.553 -0.739,0.278 -1.478,0.37 -2.216,0.248 -3.537,-0.431 -5.659,-1.508 -6.799,-5.814 -0.615,-2.584 -0.769,-5.199 -0.215,-7.845 0.554,-2.614 1.169,-5.353 1.814,-7.967 0.248,-0.893 0.493,-1.969 0.554,-2.953 0.125,-1.077 0.556,-2.062 1.078,-3.168 1.753,-3.292 2.429,-5.229 6.213,-6.769 2.554,-0.953 4.829,-0.153 6.859,1.354 4.03,2.769 3.108,7.106 2.093,9.875 -1.14,3.045 -1.047,4.091 -2.153,5.845 l -1.139,1.537 c -0.831,1.109 -1.907,1.97 -3.199,2.338 -0.553,0.216 -1.139,0.34 -1.752,0.586 -0.463,0.152 -0.831,0.553 -0.831,1.138 -0.186,1.538 -0.431,3.138 -0.123,4.799 0.093,0.246 0.123,0.584 0.338,0.584 0.275,0.246 0.616,0.276 0.954,0.276 0.185,-0.03 0.431,-0.276 0.553,-0.461 4.892,-5.998 9.044,-11.966 13.135,-19.38 l 1.539,-2.368 c 0,0 0.4,-0.953 1.968,-1.354 1.108,-0.185 0.678,1.754 0.678,1.754 -1.077,5.413 -3.477,10.181 -6.122,15.318 z m -8.121,-13.658 c -0.029,-0.246 -0.245,-0.461 -0.43,-0.554 l -0.677,0 c -0.215,0.093 -0.247,0.246 -0.34,0.278 -1.477,1.722 -2.521,6.151 -2.676,8.243 0.4,-0.246 1.539,0.369 2.801,-1.292 1.167,-1.199 1.689,-3.568 1.475,-4.861 0,-0.953 0,-1.413 -0.153,-1.814 z"
         id="path49"
         inkscape:connector-curvature="0"
         style="fill:#262d3d" /><path
         d="m 344.505,451.407 c 0.42,1.187 -0.736,2.855 -0.091,3.039 1.047,0.339 2.061,0.8 3.014,1.445 1.815,1.107 2.861,2.707 3.015,5.014 0.032,1.201 0,2.369 0.308,3.57 0.123,0.398 -0.061,0.86 -0.123,1.291 0,0.492 -0.185,0.954 -0.029,1.322 0.676,1.046 0.275,2.122 -0.123,3.107 -0.155,0.614 -0.338,1.138 -0.679,1.631 -0.152,0.399 -0.183,0.861 -0.09,1.262 0.152,0.798 -0.063,1.568 -0.463,2.305 -0.706,0.862 -1.262,1.816 -1.262,3.047 -0.983,2.215 -2.061,4.398 -3.567,6.368 l -3.877,4.983 c -0.954,1.322 -2.275,2.183 -3.63,2.892 -0.308,0.092 -0.706,0.029 -0.953,-0.155 -1.229,-1.261 -3.137,-0.953 -3.475,-2.613 -0.125,-0.371 -0.646,2.368 -0.831,2.613 l -0.831,2.861 c -0.431,1.261 -1.231,2.369 -1.414,3.753 -0.248,1.261 -0.894,2.462 -1.292,3.784 -0.34,1.23 -0.586,2.583 -1.047,3.814 -0.4,1.414 -0.893,2.799 -1.416,4.152 -0.646,1.262 -1.292,2.584 -1.475,4.03 -0.093,0.276 -0.216,0.646 -0.34,0.923 -1.045,2.091 -1.137,4.367 -2.03,6.397 -0.153,0.432 -0.275,0.831 -0.216,1.323 0.248,1.507 -0.398,2.799 -0.738,4.275 -0.215,1.354 -0.799,2.646 -0.799,4.184 0,0.646 -0.37,1.261 -0.553,1.938 -0.801,2.339 -1.417,4.677 -1.939,7.074 -0.398,2.062 -1.045,4.153 -1.63,6.153 -0.153,0.585 -0.554,1.231 -1.262,1.537 -0.461,0.247 -0.983,0.4 -1.537,0.247 -0.431,-0.093 -0.894,-0.247 -1.354,-0.463 -1.014,-0.368 -1.384,-1.475 -1.014,-2.428 0.275,-0.771 0.461,-1.478 0.769,-2.216 1.354,-3.63 1.938,-6.338 3.044,-10.89 0.831,-3.599 1.385,-7.198 2.186,-10.798 0.615,-2.614 0.861,-5.291 1.752,-7.875 0.556,-1.599 1.169,-3.137 1.169,-4.828 0.771,-1.632 0.556,-3.569 1.725,-5.076 0.431,-1.538 0.983,-3.169 1.321,-4.83 0.4,-2.584 2.769,-8.675 3.322,-10.735 l 9.598,-31.839 c 0.893,-1.876 1.416,-3.722 1.784,-5.721 0.277,-1.169 0.254,0.239 0.96,-0.868 0.123,-1.169 3.78,-0.379 3.703,0.003 l 2.41,0.998 z m -2.121,16.36 c 0.584,-1.384 0.984,-2.893 1.385,-4.368 0.061,-0.124 0.061,-0.247 0,-0.339 -0.063,-0.184 -0.123,-0.339 -0.216,-0.369 -0.185,-0.154 -0.555,-0.154 -0.585,-0.093 -0.676,0.554 -1.229,1.169 -1.815,1.815 -1.414,1.507 -2.553,3.139 -2.86,5.353 -0.153,1.076 -0.554,2.276 -1.076,3.168 -1.015,1.477 -0.831,3.076 -0.831,4.769 0,0.062 0.215,0.185 0.277,0.215 0.123,0 0.368,0.063 0.4,-0.03 2.306,-2.092 4.275,-4.583 5.63,-7.352 -0.371,-1.047 -1.385,-1.785 -0.309,-2.769 z"
         id="path51"
         inkscape:connector-curvature="0"
         style="fill:#262d3d" /><path
         d="m 352.139,487.546 c -0.184,-0.399 -0.308,-0.83 -0.153,-1.2 0.554,-1.6 0.461,-3.353 0.769,-5.044 0.186,-1.169 0.309,-2.186 0.616,-3.292 0.615,-1.6 0.953,-3.169 1.477,-4.83 0.308,-1.138 0.799,-2.184 1.169,-3.291 0.368,-0.83 0.738,-1.754 0.738,-2.708 0,-0.398 0.153,-0.798 0.338,-1.168 0.523,-0.83 0.799,-1.784 1.106,-2.799 0.371,-0.954 0.802,-2.03 1.324,-2.954 0.245,-0.492 0.646,-0.983 1.199,-1.262 0.338,-0.152 0.554,-0.338 0.924,-0.184 0.769,0.276 1.444,0.124 2.06,0 0.954,-0.154 1.755,0.031 2.584,0.399 0.556,0.185 0.986,0.678 1.016,1.262 0.153,0.953 0.246,1.938 -0.154,2.769 -0.554,1.169 -0.861,2.369 -1.508,3.477 -0.46,0.953 -0.676,2.091 -1.014,3.106 0.153,0.708 -0.093,1.169 -0.523,1.691 -1.016,1.63 -1.416,3.6 -1.691,5.508 -0.37,1.291 -0.554,2.645 -0.738,3.906 -0.216,1.445 -0.4,2.799 -0.493,4.121 -0.093,0.861 -0.123,1.692 -0.123,2.553 -0.093,0.954 0,1.938 0,2.954 0,0.461 0.186,0.954 0.679,1.292 0.306,0.308 0.43,0.646 0.736,0.831 0.124,0.092 0.4,0.152 0.522,0.029 0.4,-0.152 0.771,-0.215 1.108,-0.553 0.677,-0.708 1.077,-1.446 1.478,-2.368 1.6,-3.292 3.076,-6.799 4.428,-10.275 0.248,-0.769 0.338,-1.537 0.616,-2.184 0.277,-0.77 0.523,-1.538 0.769,-2.185 0.985,-1.661 1.416,-3.507 1.939,-5.507 1.014,-4.06 2.336,-8.09 4.213,-11.813 0.216,-0.399 0.245,-0.83 0.431,-1.321 l 1.324,-0.369 c 0.398,-0.216 0.738,-0.399 1.137,-0.492 0.646,-0.308 1.231,-0.308 1.814,-0.031 0.646,0.124 1.324,0.369 2.063,0.523 0.831,0.062 1.292,0.553 1.752,1.169 l 0.186,0.521 c 0.215,0.4 0.338,0.77 0.093,1.169 -0.093,0.216 -0.186,0.34 -0.278,0.4 -0.676,0.954 -0.522,2.216 -1.229,3.106 -0.679,0.709 -1.109,1.724 -1.569,2.523 -0.677,1.262 -1.169,2.491 -1.354,4.03 -0.123,1.076 -0.646,2.091 -1.076,3.076 -0.4,1.014 -0.861,1.968 -1.231,3.014 -0.338,1.6 -1.014,3.047 -1.815,4.368 -0.706,0.831 -0.983,1.785 -1.014,2.861 0.03,0.615 -0.215,1.139 -0.553,1.661 -0.523,0.77 -0.924,1.691 -1.169,2.677 -0.186,0.83 -0.739,1.659 -1.109,2.521 -0.122,0.522 -0.275,0.985 -0.308,1.477 6.123,-3.998 11.137,-12.981 13.505,-16.427 0.708,-0.738 0.771,-1.322 1.877,-1.722 0.338,-0.124 0.523,0.03 0.738,0.184 0.216,0.216 0.799,0.399 0.616,0.646 -0.371,0.522 0.122,1.477 -0.278,1.907 0.278,0.83 -4.86,12.643 -13.475,18.888 -2.367,2.46 -5.289,4.706 -7.566,6.921 -0.646,1.445 -0.614,1.692 -1.199,3.169 -0.368,0.83 -0.831,1.63 -1.169,2.461 -0.186,0.276 -0.338,0.676 -0.338,0.953 l -0.278,0.892 c -0.86,2.03 -1.507,4.093 -2.306,6.183 -0.893,2.031 -1.477,4.123 -2.308,6.092 -0.215,0.491 -0.277,0.953 -0.493,1.384 -0.245,0.923 -0.245,1.876 -0.583,2.769 -1.477,3.015 -2.676,6.152 -4.706,8.798 -0.586,0.831 -1.262,1.691 -1.907,2.492 -0.646,0.769 -1.417,1.508 -2.216,2.091 -0.953,0.708 -2.029,1.354 -3.384,1.477 -1.169,0.124 -2.245,0.308 -3.384,-0.093 -0.706,-0.183 -1.353,-0.183 -2.061,-0.338 -1.723,-0.368 -3.477,-0.86 -5.046,-1.752 -1.199,-0.801 -2.429,-1.385 -3.69,-1.815 -0.37,-0.154 -0.522,-0.522 -0.553,-0.923 -0.216,-1.692 0.152,-3.199 1.106,-4.613 0.583,-0.831 1.076,-1.878 1.537,-2.801 0.678,-1.568 1.6,-2.86 2.522,-4.244 0.338,-0.523 0.769,-0.954 1.14,-1.354 1.046,-0.77 1.752,-1.724 2.522,-2.677 0.984,-1.016 1.815,-1.999 2.613,-2.984 0.461,-0.461 0.709,-1.015 1.047,-1.476 0.245,-0.185 0.4,-0.554 0.646,-0.77 1.692,-1.508 3.199,-3.353 4.706,-5.045 1.662,-1.784 3.322,-3.723 5.229,-5.414 0.585,-0.523 1.108,-1.169 1.662,-1.785 0.583,-0.706 1.198,-1.537 2.245,-1.845 0.277,-0.123 0.4,-0.461 0.523,-0.8 0.122,-0.276 0.308,-0.276 0.553,-0.276 0.186,-0.03 0.277,-0.154 0.248,-0.369 -0.093,-0.216 -0.155,-0.399 -0.278,-0.431 0,-0.124 -0.185,-0.154 -0.215,-0.185 -1.324,-0.37 -2.493,-0.923 -3.63,-1.662 -0.708,-0.46 -1.416,-0.83 -2.186,-1.229 -1.106,-1.323 -1.507,-1.478 -2.646,-4.553 -0.183,-0.95 -0.431,-1.873 -0.646,-2.888 z m 2.43,23.348 c -1.938,2.03 -3.692,4.245 -5.475,6.461 -0.338,0.583 -0.771,1.014 -0.986,1.69 -0.706,1.938 -1.659,3.631 -2.644,5.415 -0.986,1.63 -1.662,3.383 -2.37,5.229 0,0.216 0.185,0.647 0.463,0.862 0.368,0.399 0.829,0.491 1.106,0.245 1.755,-0.86 3.046,-2.061 4,-3.629 l 1.537,-2.616 c 0.676,-1.414 1.539,-2.737 2.185,-4.121 0.984,-1.969 1.63,-4.122 2.922,-5.813 0.122,-0.123 0.215,-0.309 0.155,-0.4 -0.033,-0.677 0.368,-1.23 0.613,-1.692 0.308,-0.676 0.771,-1.354 1.016,-2.03 0.216,-0.707 0.523,-1.445 0.799,-2.092 0.155,-0.184 0,-0.398 0,-0.584 l -0.583,0.215 c -0.984,0.922 -1.877,1.876 -2.738,2.86 z m 3.785,-3.231 c -0.185,-0.184 -0.277,-0.061 -0.338,0.093 0.061,0 0.153,0.062 0.153,0.062 0.092,-10e-4 0.185,-0.124 0.185,-0.155 z"
         id="path53"
         inkscape:connector-curvature="0"
         style="fill:#262d3d" /></g><g
       clip-path="url(#SVGID_2_)"
       id="g55"><rect
         x="260.12601"
         y="450.00101"
         width="457.405"
         height="91.864998"
         id="rect57"
         style="fill:none" /></g><g
       clip-path="url(#SVGID_2_)"
       id="g59"><rect
         x="133.35899"
         y="341.677"
         width="44.838001"
         height="0.84600002"
         id="rect61"
         style="fill:none" /></g></g><path
     d="m 187.33099,67.5955 c -0.56,0.482 -1.01,0.947 -1.537,1.303 -0.734,0.497 -0.803,1.042 -0.199,1.627 1.091,1.069 2.22,2.094 3.334,3.137 0.067,-0.062 0.133,-0.127 0.199,-0.19 -0.587,-1.913 -1.169,-3.826 -1.797,-5.877 m 35.158,-28.038 c 1.437,2.626 2.827,5.17 4.252,7.771 m -33.919,15.332 c 1.71,3.146 3.38,6.214 5.096,9.371 0.842,-0.8 1.754,-1.642 2.632,-2.518 0.119,-0.119 0.174,-0.42 0.115,-0.586 -1.131,-3.342 -2.286,-6.674 -3.453,-10.047 -1.487,1.283 -3.006,2.588 -4.39,3.78 m 24.246,-6.787 c 1.206,-1.152 2.417,-2.293 3.599,-3.463 0.134,-0.132 0.202,-0.473 0.132,-0.644 -1.202,-2.867 -2.43,-5.722 -3.699,-8.687 -1.686,1.236 -3.304,2.423 -4.822,3.535 1.618,3.131 3.191,6.169 4.79,9.259 m -10.16,-5.207 c -1.607,1.382 -3.187,2.741 -4.684,4.027 1.582,3.247 3.159,6.492 4.77,9.796 1.233,-1.062 2.427,-2.075 3.595,-3.11 0.119,-0.112 0.184,-0.416 0.123,-0.571 -1.236,-3.338 -2.496,-6.668 -3.804,-10.142 m 22.266,10.075 c 0.383,-2.729 0.199,-5.274 -0.941,-7.566 -2.132,-4.283 -4.389,-8.509 -6.778,-12.653 -1.099,-1.911 -2.7,-3.495 -5.023,-4.397 0.4,1.503 0.625,3.078 1.229,4.491 1.415,3.305 2.982,6.545 4.548,9.786 1.646,3.411 3.362,6.79 5.059,10.178 0.149,0.305 0.379,0.574 0.693,1.036 -0.919,-5.808 -3.109,-10.917 -5.8,-16.047 1.71,1.332 3.623,5.523 7.013,15.172 m -20.733,17.486 c -2.13,-5.802 -4.263,-11.605 -6.279,-17.101 2.839,5.079 5.347,10.688 7.481,16.697 0.392,-3.049 -0.212,-5.678 -1.427,-8.225 -1.826,-3.826 -3.539,-7.706 -5.375,-11.528 -1.049,-2.194 -2.456,-4.153 -4.433,-5.641 -0.155,-0.118 -0.315,-0.221 -0.478,-0.327 -0.101,-0.064 -0.208,-0.12 -0.567,-0.322 1.233,9.98 5.207,18.596 10.534,26.672 0.184,-0.076 0.365,-0.149 0.544,-0.225 m 10.414,-8.299 c -2.5,-5.684 -4.998,-11.351 -7.493,-17.02 0.102,-0.045 0.204,-0.091 0.309,-0.14 2.771,5.586 5.544,11.176 8.318,16.766 0.063,-0.017 0.129,-0.036 0.192,-0.05 -0.121,-0.659 -0.164,-1.344 -0.38,-1.97 -0.817,-2.368 -1.58,-4.765 -2.571,-7.057 -1.72,-3.983 -3.53,-7.93 -5.433,-11.832 -1.024,-2.101 -2.538,-3.857 -4.838,-5.125 0.095,1.007 0.08,1.876 0.271,2.692 1.498,6.483 3.579,12.759 6.828,18.592 1.174,2.106 2.814,3.823 4.797,5.144 m -32.107,-10.612 c 0.168,1.289 0.189,2.33 0.452,3.305 1.446,5.345 3.076,10.631 5.717,15.533 1.309,2.429 3.013,4.563 5.109,6.367 0.214,0.184 0.458,0.339 0.793,0.581 -2.721,-5.158 -5.461,-10.154 -7.04,-15.681 2.636,5.092 5.051,10.31 8.54,15.207 -0.05,-0.407 -0.047,-0.575 -0.096,-0.73 -1.923,-6.361 -4.389,-12.5 -7.518,-18.359 -1.327,-2.489 -3.177,-4.58 -5.957,-6.223 m 2.867,27.275 c -0.519,1.216 -1.036,2.434 -1.646,3.863 0.331,-2.643 0.643,-5.019 0.912,-7.405 0.27,-2.347 -0.139,-4.601 -0.982,-6.804 -0.748,-1.963 -2.143,-3.109 -4.164,-3.441 -1.332,-0.217 -2.686,-0.28 -4.032,-0.366 -1.754,-0.114 -3.512,-0.176 -5.265,-0.262 -0.001,-0.093 -0.001,-0.186 0,-0.281 1.133,-0.063 2.265,-0.127 3.401,-0.191 -0.009,-0.08 -0.009,-0.159 -0.013,-0.239 -3.771,-0.052 -7.542,-0.104 -11.312,-0.154 -0.009,-0.056 -0.01,-0.109 -0.016,-0.163 0.85,-0.082 1.697,-0.163 2.548,-0.242 0.001,-0.026 0.001,-0.056 0.003,-0.084 -3.567,-0.321 -7.133,-0.646 -10.7,-0.97 0,-0.093 0,-0.19 0.003,-0.286 1.426,-0.021 2.854,-0.042 4.282,-0.064 0.005,-0.042 0.012,-0.081 0.016,-0.123 -2.364,-0.481 -4.729,-0.961 -7.169,-1.455 0.346,2.605 1.067,5.063 2.017,7.461 2.365,5.99 5.936,11.249 10.027,16.17 0.203,0.246 0.715,0.375 1.055,0.338 1.621,-0.178 3.231,-0.434 4.983,-0.682 -0.526,1.631 -0.943,3.082 -1.472,4.492 -0.234,0.619 -0.104,0.971 0.333,1.404 5.046,5.028 10.624,9.342 16.892,12.745 1.241,0.674 2.468,1.377 3.696,2.064 0.021,-2.91 -0.052,-5.787 0.087,-8.656 0.14,-2.855 0.492,-5.705 0.752,-8.561 -0.164,-0.018 -0.326,-0.035 -0.489,-0.057 -0.585,4.135 -1.171,8.27 -1.757,12.428 -0.532,-4.801 0.081,-9.582 0.286,-14.362 -0.122,-0.016 -0.239,-0.029 -0.356,-0.047 -0.518,2.9 -1.033,5.803 -1.553,8.706 -0.025,0 -0.054,-0.004 -0.084,-0.004 0.227,-3.576 0.456,-7.153 0.684,-10.729 -0.03,-0.007 -0.059,-0.017 -0.089,-0.028 -0.438,1.75 -0.879,3.502 -1.319,5.25 -0.321,-3.116 -0.026,-6.185 0.441,-9.265 m 42.969,-32.735 c -0.512,0.467 -0.668,0.877 -0.524,1.58 0.573,2.847 0.274,5.616 -0.895,8.319 -2.181,-0.682 -3.332,-2.478 -4.651,-4.088 -1.469,1.405 -2.857,2.703 -4.193,4.049 -0.207,0.207 -0.235,0.671 -0.214,1.008 0.111,1.663 0.292,3.324 0.387,4.989 0.023,0.511 -0.148,1.036 -0.275,1.856 -1.745,-1.163 -3.28,-2.183 -4.887,-3.253 -1.398,1.204 -2.866,2.504 -4.377,3.746 -0.578,0.473 -0.8,0.922 -0.696,1.701 0.293,2.208 0.155,4.411 -0.313,6.641 -2.192,-0.445 -3.768,-1.726 -5.208,-3.282 -0.973,0.689 -1.856,1.394 -2.812,1.978 -0.913,0.558 -1.237,1.109 -0.842,2.242 0.755,2.192 1.104,4.484 1.018,6.91 -2.694,-0.495 -4.638,-2.169 -6.851,-3.979 -0.496,9.754 -0.979,19.23 -1.47,28.854 -1.339,-0.539 -2.683,-0.979 -3.937,-1.596 -7.44,-3.66 -13.949,-8.572 -19.636,-14.602 -0.436,-0.457 -0.307,-0.836 -0.127,-1.303 0.465,-1.182 0.905,-2.373 1.396,-3.664 -1.607,0.139 -3.071,0.31 -4.542,0.365 -0.402,0.016 -0.958,-0.205 -1.2,-0.51 -1.124,-1.409 -2.216,-2.844 -3.211,-4.345 -3.021,-4.54 -5.658,-9.286 -7.379,-14.487 -0.749,-2.267 -1.2,-4.59 -1.163,-7.29 0.91,0.14 1.732,0.305 2.56,0.383 4.996,0.462 9.988,0.994 15,1.315 3.202,0.208 6.435,-0.021 9.639,0.181 1.363,0.082 2.202,-0.334 3.199,-1.16 1.452,-1.197 2.025,-2.389 1.425,-4.273 -0.472,-1.48 -0.466,-3.085 0.067,-4.932 1.729,1.059 3.326,2.037 4.855,2.974 1.712,-1.47 3.5,-2.987 5.249,-4.547 0.176,-0.158 0.166,-0.581 0.157,-0.874 -0.044,-1.662 -0.116,-3.322 -0.181,-4.98 0.143,-0.085 0.284,-0.166 0.426,-0.249 1.246,0.804 2.494,1.603 3.726,2.389 1.479,-1.268 2.953,-2.621 4.519,-3.854 0.867,-0.684 1.115,-1.375 0.862,-2.455 -0.316,-1.336 -0.271,-2.71 0.269,-4.252 1.379,0.783 2.622,1.486 3.883,2.204 1.811,-1.389 3.684,-2.801 5.515,-4.264 0.188,-0.149 0.191,-0.615 0.165,-0.926 -0.114,-1.49 -0.27,-2.979 -0.424,-4.6 1.777,0.343 3.06,1.025 4.171,2.033"
     id="path63"
     inkscape:connector-curvature="0"
     style="fill:#262d3e" /></svg>